<?xml version="1.0" encoding="UTF-8"?>
<svg width="1404" height="1872" viewBox="0 0 1404 1872" version="1.1" xmlns="http://www.w3.org/2000/svg" xmlns:xlink="http://www.w3.org/1999/xlink">
 <path d="M157.48,0 l27.56,0 l0,27.56 l-27.56,0 Z M157.48,0" fill="rgb(0,0,0)" fill-opacity="0.1" transform="matrix(6.123233995736766e-17,-1.0,-1.0,-6.123233995736766e-17,1261.0554200000001,1872.0)"/>
 <path d="M157.48,0 l1557.04,0" fill="rgb(0,0,0)" fill-opacity="0.1" stroke="rgb(0,0,0)" stroke-opacity="0.3" stroke-width="3.15" transform="matrix(6.123233995736766e-17,-1.0,-1.0,-6.123233995736766e-17,1261.0554200000001,1872.0)"/>
 <path d="M185.04,0 l27.56,0 l0,27.56 l-27.56,0 Z M185.04,0" fill="rgb(0,0,0)" fill-opacity="0.1" transform="matrix(6.123233995736766e-17,-1.0,-1.0,-6.123233995736766e-17,1233.4963500000001,1872.0)"/>
 <path d="M157.48,0 l1557.04,0" fill="rgb(0,0,0)" fill-opacity="0.1" stroke="rgb(0,0,0)" stroke-opacity="0.5" stroke-width="0.79" transform="matrix(6.123233995736766e-17,-1.0,-1.0,-6.123233995736766e-17,1233.4963500000001,1872.0)"/>
 <path d="M157.48,0 l27.56,0 l0,27.56 l-27.56,0 Z M157.48,0" fill="rgb(0,0,0)" fill-opacity="0.1" transform="matrix(6.123233995736766e-17,-1.0,-1.0,-6.123233995736766e-17,1205.93728,1872.0)"/>
 <path d="M157.48,0 l1557.04,0" fill="rgb(0,0,0)" fill-opacity="0.1" stroke="rgb(0,0,0)" stroke-opacity="0.3" stroke-width="3.15" transform="matrix(6.123233995736766e-17,-1.0,-1.0,-6.123233995736766e-17,1205.93728,1872.0)"/>
 <path d="M185.04,0 l27.56,0 l0,27.56 l-27.56,0 Z M185.04,0" fill="rgb(0,0,0)" fill-opacity="0.1" transform="matrix(6.123233995736766e-17,-1.0,-1.0,-6.123233995736766e-17,1178.37821,1872.0)"/>
 <path d="M157.48,0 l1557.04,0" fill="rgb(0,0,0)" fill-opacity="0.1" stroke="rgb(0,0,0)" stroke-opacity="0.5" stroke-width="0.79" transform="matrix(6.123233995736766e-17,-1.0,-1.0,-6.123233995736766e-17,1178.37821,1872.0)"/>
 <path d="M157.48,0 l27.56,0 l0,27.56 l-27.56,0 Z M157.48,0" fill="rgb(0,0,0)" fill-opacity="0.1" transform="matrix(6.123233995736766e-17,-1.0,-1.0,-6.123233995736766e-17,1150.81914,1872.0)"/>
 <path d="M157.48,0 l1557.04,0" fill="rgb(0,0,0)" fill-opacity="0.1" stroke="rgb(0,0,0)" stroke-opacity="0.5" stroke-width="0.79" transform="matrix(6.123233995736766e-17,-1.0,-1.0,-6.123233995736766e-17,1150.81914,1872.0)"/>
 <path d="M185.04,0 l27.56,0 l0,27.56 l-27.56,0 Z M185.04,0" fill="rgb(0,0,0)" fill-opacity="0.1" transform="matrix(6.123233995736766e-17,-1.0,-1.0,-6.123233995736766e-17,1123.26007,1872.0)"/>
 <path d="M157.48,0 l1557.04,0" fill="rgb(0,0,0)" fill-opacity="0.1" stroke="rgb(0,0,0)" stroke-opacity="0.5" stroke-width="0.79" transform="matrix(6.123233995736766e-17,-1.0,-1.0,-6.123233995736766e-17,1123.26007,1872.0)"/>
 <path d="M157.48,0 l27.56,0 l0,27.56 l-27.56,0 Z M157.48,0" fill="rgb(0,0,0)" fill-opacity="0.1" transform="matrix(6.123233995736766e-17,-1.0,-1.0,-6.123233995736766e-17,1095.701,1872.0)"/>
 <path d="M157.48,0 l1557.04,0" fill="rgb(0,0,0)" fill-opacity="0.1" stroke="rgb(0,0,0)" stroke-opacity="0.3" stroke-width="3.15" transform="matrix(6.123233995736766e-17,-1.0,-1.0,-6.123233995736766e-17,1095.701,1872.0)"/>
 <path d="M185.04,0 l27.56,0 l0,27.56 l-27.56,0 Z M185.04,0" fill="rgb(0,0,0)" fill-opacity="0.1" transform="matrix(6.123233995736766e-17,-1.0,-1.0,-6.123233995736766e-17,1068.14193,1872.0)"/>
 <path d="M157.48,0 l1557.04,0" fill="rgb(0,0,0)" fill-opacity="0.1" stroke="rgb(0,0,0)" stroke-opacity="0.5" stroke-width="0.79" transform="matrix(6.123233995736766e-17,-1.0,-1.0,-6.123233995736766e-17,1068.14193,1872.0)"/>
 <path d="M157.48,0 l1557.04,0" fill="rgb(0,0,0)" fill-opacity="0.1" stroke="rgb(0,0,0)" stroke-opacity="0.3" stroke-width="3.15" transform="matrix(6.123233995736766e-17,-1.0,-1.0,-6.123233995736766e-17,1040.58286,1872.0)"/>
 <path d="M157.48,0 l27.56,0 l0,27.56 l-27.56,0 Z M157.48,0" fill="rgb(0,0,0)" fill-opacity="0.1" transform="matrix(6.123233995736766e-17,-1.0,-1.0,-6.123233995736766e-17,961.8426600000001,1872.0)"/>
 <path d="M157.48,0 l1557.04,0" fill="rgb(0,0,0)" fill-opacity="0.1" stroke="rgb(0,0,0)" stroke-opacity="0.3" stroke-width="3.15" transform="matrix(6.123233995736766e-17,-1.0,-1.0,-6.123233995736766e-17,961.8426600000001,1872.0)"/>
 <path d="M185.04,0 l27.56,0 l0,27.56 l-27.56,0 Z M185.04,0" fill="rgb(0,0,0)" fill-opacity="0.1" transform="matrix(6.123233995736766e-17,-1.0,-1.0,-6.123233995736766e-17,934.2835900000001,1872.0)"/>
 <path d="M157.48,0 l1557.04,0" fill="rgb(0,0,0)" fill-opacity="0.1" stroke="rgb(0,0,0)" stroke-opacity="0.5" stroke-width="0.79" transform="matrix(6.123233995736766e-17,-1.0,-1.0,-6.123233995736766e-17,934.2835900000001,1872.0)"/>
 <path d="M157.48,0 l27.56,0 l0,27.56 l-27.56,0 Z M157.48,0" fill="rgb(0,0,0)" fill-opacity="0.1" transform="matrix(6.123233995736766e-17,-1.0,-1.0,-6.123233995736766e-17,906.7245200000001,1872.0)"/>
 <path d="M157.48,0 l1557.04,0" fill="rgb(0,0,0)" fill-opacity="0.1" stroke="rgb(0,0,0)" stroke-opacity="0.3" stroke-width="3.15" transform="matrix(6.123233995736766e-17,-1.0,-1.0,-6.123233995736766e-17,906.7245200000001,1872.0)"/>
 <path d="M185.04,0 l27.56,0 l0,27.56 l-27.56,0 Z M185.04,0" fill="rgb(0,0,0)" fill-opacity="0.1" transform="matrix(6.123233995736766e-17,-1.0,-1.0,-6.123233995736766e-17,879.1654500000001,1872.0)"/>
 <path d="M157.48,0 l1557.04,0" fill="rgb(0,0,0)" fill-opacity="0.1" stroke="rgb(0,0,0)" stroke-opacity="0.5" stroke-width="0.79" transform="matrix(6.123233995736766e-17,-1.0,-1.0,-6.123233995736766e-17,879.1654500000001,1872.0)"/>
 <path d="M157.48,0 l27.56,0 l0,27.56 l-27.56,0 Z M157.48,0" fill="rgb(0,0,0)" fill-opacity="0.1" transform="matrix(6.123233995736766e-17,-1.0,-1.0,-6.123233995736766e-17,851.6063800000001,1872.0)"/>
 <path d="M157.48,0 l1557.04,0" fill="rgb(0,0,0)" fill-opacity="0.1" stroke="rgb(0,0,0)" stroke-opacity="0.5" stroke-width="0.79" transform="matrix(6.123233995736766e-17,-1.0,-1.0,-6.123233995736766e-17,851.6063800000001,1872.0)"/>
 <path d="M185.04,0 l27.56,0 l0,27.56 l-27.56,0 Z M185.04,0" fill="rgb(0,0,0)" fill-opacity="0.1" transform="matrix(6.123233995736766e-17,-1.0,-1.0,-6.123233995736766e-17,824.04731,1872.0)"/>
 <path d="M157.48,0 l1557.04,0" fill="rgb(0,0,0)" fill-opacity="0.1" stroke="rgb(0,0,0)" stroke-opacity="0.5" stroke-width="0.79" transform="matrix(6.123233995736766e-17,-1.0,-1.0,-6.123233995736766e-17,824.04731,1872.0)"/>
 <path d="M157.48,0 l27.56,0 l0,27.56 l-27.56,0 Z M157.48,0" fill="rgb(0,0,0)" fill-opacity="0.1" transform="matrix(6.123233995736766e-17,-1.0,-1.0,-6.123233995736766e-17,796.48824,1872.0)"/>
 <path d="M157.48,0 l1557.04,0" fill="rgb(0,0,0)" fill-opacity="0.1" stroke="rgb(0,0,0)" stroke-opacity="0.3" stroke-width="3.15" transform="matrix(6.123233995736766e-17,-1.0,-1.0,-6.123233995736766e-17,796.48824,1872.0)"/>
 <path d="M185.04,0 l27.56,0 l0,27.56 l-27.56,0 Z M185.04,0" fill="rgb(0,0,0)" fill-opacity="0.1" transform="matrix(6.123233995736766e-17,-1.0,-1.0,-6.123233995736766e-17,768.92917,1872.0)"/>
 <path d="M157.48,0 l1557.04,0" fill="rgb(0,0,0)" fill-opacity="0.1" stroke="rgb(0,0,0)" stroke-opacity="0.5" stroke-width="0.79" transform="matrix(6.123233995736766e-17,-1.0,-1.0,-6.123233995736766e-17,768.92917,1872.0)"/>
 <path d="M157.48,0 l1557.04,0" fill="rgb(0,0,0)" fill-opacity="0.1" stroke="rgb(0,0,0)" stroke-opacity="0.3" stroke-width="3.15" transform="matrix(6.123233995736766e-17,-1.0,-1.0,-6.123233995736766e-17,741.3701,1872.0)"/>
 <path d="M157.48,0 l27.56,0 l0,27.56 l-27.56,0 Z M157.48,0" fill="rgb(0,0,0)" fill-opacity="0.1" transform="matrix(6.123233995736766e-17,-1.0,-1.0,-6.123233995736766e-17,662.6299000000001,1872.0)"/>
 <path d="M157.48,0 l1557.04,0" fill="rgb(0,0,0)" fill-opacity="0.1" stroke="rgb(0,0,0)" stroke-opacity="0.3" stroke-width="3.15" transform="matrix(6.123233995736766e-17,-1.0,-1.0,-6.123233995736766e-17,662.6299000000001,1872.0)"/>
 <path d="M185.04,0 l27.56,0 l0,27.56 l-27.56,0 Z M185.04,0" fill="rgb(0,0,0)" fill-opacity="0.1" transform="matrix(6.123233995736766e-17,-1.0,-1.0,-6.123233995736766e-17,635.0708300000001,1872.0)"/>
 <path d="M157.48,0 l1557.04,0" fill="rgb(0,0,0)" fill-opacity="0.1" stroke="rgb(0,0,0)" stroke-opacity="0.5" stroke-width="0.79" transform="matrix(6.123233995736766e-17,-1.0,-1.0,-6.123233995736766e-17,635.0708300000001,1872.0)"/>
 <path d="M157.48,0 l27.56,0 l0,27.56 l-27.56,0 Z M157.48,0" fill="rgb(0,0,0)" fill-opacity="0.1" transform="matrix(6.123233995736766e-17,-1.0,-1.0,-6.123233995736766e-17,607.5117600000001,1872.0)"/>
 <path d="M157.48,0 l1557.04,0" fill="rgb(0,0,0)" fill-opacity="0.1" stroke="rgb(0,0,0)" stroke-opacity="0.3" stroke-width="3.15" transform="matrix(6.123233995736766e-17,-1.0,-1.0,-6.123233995736766e-17,607.5117600000001,1872.0)"/>
 <path d="M185.04,0 l27.56,0 l0,27.56 l-27.56,0 Z M185.04,0" fill="rgb(0,0,0)" fill-opacity="0.1" transform="matrix(6.123233995736766e-17,-1.0,-1.0,-6.123233995736766e-17,579.9526900000001,1872.0)"/>
 <path d="M157.48,0 l1557.04,0" fill="rgb(0,0,0)" fill-opacity="0.1" stroke="rgb(0,0,0)" stroke-opacity="0.5" stroke-width="0.79" transform="matrix(6.123233995736766e-17,-1.0,-1.0,-6.123233995736766e-17,579.9526900000001,1872.0)"/>
 <path d="M157.48,0 l27.56,0 l0,27.56 l-27.56,0 Z M157.48,0" fill="rgb(0,0,0)" fill-opacity="0.1" transform="matrix(6.123233995736766e-17,-1.0,-1.0,-6.123233995736766e-17,552.39362,1872.0)"/>
 <path d="M157.48,0 l1557.04,0" fill="rgb(0,0,0)" fill-opacity="0.1" stroke="rgb(0,0,0)" stroke-opacity="0.5" stroke-width="0.79" transform="matrix(6.123233995736766e-17,-1.0,-1.0,-6.123233995736766e-17,552.39362,1872.0)"/>
 <path d="M185.04,0 l27.56,0 l0,27.56 l-27.56,0 Z M185.04,0" fill="rgb(0,0,0)" fill-opacity="0.1" transform="matrix(6.123233995736766e-17,-1.0,-1.0,-6.123233995736766e-17,524.83455,1872.0)"/>
 <path d="M157.48,0 l1557.04,0" fill="rgb(0,0,0)" fill-opacity="0.1" stroke="rgb(0,0,0)" stroke-opacity="0.5" stroke-width="0.79" transform="matrix(6.123233995736766e-17,-1.0,-1.0,-6.123233995736766e-17,524.83455,1872.0)"/>
 <path d="M157.48,0 l27.56,0 l0,27.56 l-27.56,0 Z M157.48,0" fill="rgb(0,0,0)" fill-opacity="0.1" transform="matrix(6.123233995736766e-17,-1.0,-1.0,-6.123233995736766e-17,497.27548,1872.0)"/>
 <path d="M157.48,0 l1557.04,0" fill="rgb(0,0,0)" fill-opacity="0.1" stroke="rgb(0,0,0)" stroke-opacity="0.3" stroke-width="3.15" transform="matrix(6.123233995736766e-17,-1.0,-1.0,-6.123233995736766e-17,497.27548,1872.0)"/>
 <path d="M185.04,0 l27.56,0 l0,27.56 l-27.56,0 Z M185.04,0" fill="rgb(0,0,0)" fill-opacity="0.1" transform="matrix(6.123233995736766e-17,-1.0,-1.0,-6.123233995736766e-17,469.71641,1872.0)"/>
 <path d="M157.48,0 l1557.04,0" fill="rgb(0,0,0)" fill-opacity="0.1" stroke="rgb(0,0,0)" stroke-opacity="0.5" stroke-width="0.79" transform="matrix(6.123233995736766e-17,-1.0,-1.0,-6.123233995736766e-17,469.71641,1872.0)"/>
 <path d="M157.48,0 l1557.04,0" fill="rgb(0,0,0)" fill-opacity="0.1" stroke="rgb(0,0,0)" stroke-opacity="0.3" stroke-width="3.15" transform="matrix(6.123233995736766e-17,-1.0,-1.0,-6.123233995736766e-17,442.15734,1872.0)"/>
 <path d="M157.48,0 l27.56,0 l0,27.56 l-27.56,0 Z M157.48,0" fill="rgb(0,0,0)" fill-opacity="0.1" transform="matrix(6.123233995736766e-17,-1.0,-1.0,-6.123233995736766e-17,363.41714000000013,1872.0)"/>
 <path d="M157.48,0 l1557.04,0" fill="rgb(0,0,0)" fill-opacity="0.1" stroke="rgb(0,0,0)" stroke-opacity="0.3" stroke-width="3.15" transform="matrix(6.123233995736766e-17,-1.0,-1.0,-6.123233995736766e-17,363.41714000000013,1872.0)"/>
 <path d="M185.04,0 l27.56,0 l0,27.56 l-27.56,0 Z M185.04,0" fill="rgb(0,0,0)" fill-opacity="0.1" transform="matrix(6.123233995736766e-17,-1.0,-1.0,-6.123233995736766e-17,335.8580700000001,1872.0)"/>
 <path d="M157.48,0 l1557.04,0" fill="rgb(0,0,0)" fill-opacity="0.1" stroke="rgb(0,0,0)" stroke-opacity="0.5" stroke-width="0.79" transform="matrix(6.123233995736766e-17,-1.0,-1.0,-6.123233995736766e-17,335.8580700000001,1872.0)"/>
 <path d="M157.48,0 l27.56,0 l0,27.56 l-27.56,0 Z M157.48,0" fill="rgb(0,0,0)" fill-opacity="0.1" transform="matrix(6.123233995736766e-17,-1.0,-1.0,-6.123233995736766e-17,308.2990000000001,1872.0)"/>
 <path d="M157.48,0 l1557.04,0" fill="rgb(0,0,0)" fill-opacity="0.1" stroke="rgb(0,0,0)" stroke-opacity="0.3" stroke-width="3.15" transform="matrix(6.123233995736766e-17,-1.0,-1.0,-6.123233995736766e-17,308.2990000000001,1872.0)"/>
 <path d="M185.04,0 l27.56,0 l0,27.56 l-27.56,0 Z M185.04,0" fill="rgb(0,0,0)" fill-opacity="0.1" transform="matrix(6.123233995736766e-17,-1.0,-1.0,-6.123233995736766e-17,280.7399300000001,1872.0)"/>
 <path d="M157.48,0 l1557.04,0" fill="rgb(0,0,0)" fill-opacity="0.1" stroke="rgb(0,0,0)" stroke-opacity="0.5" stroke-width="0.79" transform="matrix(6.123233995736766e-17,-1.0,-1.0,-6.123233995736766e-17,280.7399300000001,1872.0)"/>
 <path d="M157.48,0 l27.56,0 l0,27.56 l-27.56,0 Z M157.48,0" fill="rgb(0,0,0)" fill-opacity="0.1" transform="matrix(6.123233995736766e-17,-1.0,-1.0,-6.123233995736766e-17,253.18086000000008,1872.0)"/>
 <path d="M157.48,0 l1557.04,0" fill="rgb(0,0,0)" fill-opacity="0.1" stroke="rgb(0,0,0)" stroke-opacity="0.5" stroke-width="0.79" transform="matrix(6.123233995736766e-17,-1.0,-1.0,-6.123233995736766e-17,253.18086000000008,1872.0)"/>
 <path d="M185.04,0 l27.56,0 l0,27.56 l-27.56,0 Z M185.04,0" fill="rgb(0,0,0)" fill-opacity="0.1" transform="matrix(6.123233995736766e-17,-1.0,-1.0,-6.123233995736766e-17,225.6217900000001,1872.0)"/>
 <path d="M157.48,0 l1557.04,0" fill="rgb(0,0,0)" fill-opacity="0.1" stroke="rgb(0,0,0)" stroke-opacity="0.5" stroke-width="0.79" transform="matrix(6.123233995736766e-17,-1.0,-1.0,-6.123233995736766e-17,225.6217900000001,1872.0)"/>
 <path d="M157.48,0 l27.56,0 l0,27.56 l-27.56,0 Z M157.48,0" fill="rgb(0,0,0)" fill-opacity="0.1" transform="matrix(6.123233995736766e-17,-1.0,-1.0,-6.123233995736766e-17,198.0627200000001,1872.0)"/>
 <path d="M157.48,0 l1557.04,0" fill="rgb(0,0,0)" fill-opacity="0.1" stroke="rgb(0,0,0)" stroke-opacity="0.3" stroke-width="3.15" transform="matrix(6.123233995736766e-17,-1.0,-1.0,-6.123233995736766e-17,198.0627200000001,1872.0)"/>
 <path d="M185.04,0 l27.56,0 l0,27.56 l-27.56,0 Z M185.04,0" fill="rgb(0,0,0)" fill-opacity="0.1" transform="matrix(6.123233995736766e-17,-1.0,-1.0,-6.123233995736766e-17,170.5036500000001,1872.0)"/>
 <path d="M157.48,0 l1557.04,0" fill="rgb(0,0,0)" fill-opacity="0.1" stroke="rgb(0,0,0)" stroke-opacity="0.5" stroke-width="0.79" transform="matrix(6.123233995736766e-17,-1.0,-1.0,-6.123233995736766e-17,170.5036500000001,1872.0)"/>
 <path d="M157.48,0 l1557.04,0" fill="rgb(0,0,0)" fill-opacity="0.1" stroke="rgb(0,0,0)" stroke-opacity="0.3" stroke-width="3.15" transform="matrix(6.123233995736766e-17,-1.0,-1.0,-6.123233995736766e-17,142.94458000000012,1872.0)"/>
</svg>