<?xml version="1.0" encoding="UTF-8"?>
<svg width="1872" height="1404" viewBox="0 0 1872 1404" version="1.1" xmlns="http://www.w3.org/2000/svg" xmlns:xlink="http://www.w3.org/1999/xlink">
 <path d="M157.48,0 l27.56,0 l0,27.56 l-27.56,0 Z M157.48,0" fill="rgb(0,0,0)" fill-opacity="0.1" transform="matrix(1,0,0,-1,0.0,1261.0554200000001)"/>
 <path d="M157.48,0 l1557.04,0" fill="rgb(0,0,0)" fill-opacity="0.1" stroke="rgb(0,0,0)" stroke-opacity="0.3" stroke-width="3.15" transform="matrix(1,0,0,-1,0.0,1261.0554200000001)"/>
 <path d="M185.04,0 l27.56,0 l0,27.56 l-27.56,0 Z M185.04,0" fill="rgb(0,0,0)" fill-opacity="0.1" transform="matrix(1,0,0,-1,0.0,1233.4963500000001)"/>
 <path d="M157.48,0 l1557.04,0" fill="rgb(0,0,0)" fill-opacity="0.1" stroke="rgb(0,0,0)" stroke-opacity="0.5" stroke-width="0.79" transform="matrix(1,0,0,-1,0.0,1233.4963500000001)"/>
 <path d="M157.48,0 l27.56,0 l0,27.56 l-27.56,0 Z M157.48,0" fill="rgb(0,0,0)" fill-opacity="0.1" transform="matrix(1,0,0,-1,0.0,1205.93728)"/>
 <path d="M157.48,0 l1557.04,0" fill="rgb(0,0,0)" fill-opacity="0.1" stroke="rgb(0,0,0)" stroke-opacity="0.3" stroke-width="3.15" transform="matrix(1,0,0,-1,0.0,1205.93728)"/>
 <path d="M185.04,0 l27.56,0 l0,27.56 l-27.56,0 Z M185.04,0" fill="rgb(0,0,0)" fill-opacity="0.1" transform="matrix(1,0,0,-1,0.0,1178.37821)"/>
 <path d="M157.48,0 l1557.04,0" fill="rgb(0,0,0)" fill-opacity="0.1" stroke="rgb(0,0,0)" stroke-opacity="0.5" stroke-width="0.79" transform="matrix(1,0,0,-1,0.0,1178.37821)"/>
 <path d="M157.48,0 l27.56,0 l0,27.56 l-27.56,0 Z M157.48,0" fill="rgb(0,0,0)" fill-opacity="0.1" transform="matrix(1,0,0,-1,0.0,1150.81914)"/>
 <path d="M157.48,0 l1557.04,0" fill="rgb(0,0,0)" fill-opacity="0.1" stroke="rgb(0,0,0)" stroke-opacity="0.5" stroke-width="0.79" transform="matrix(1,0,0,-1,0.0,1150.81914)"/>
 <path d="M185.04,0 l27.56,0 l0,27.56 l-27.56,0 Z M185.04,0" fill="rgb(0,0,0)" fill-opacity="0.1" transform="matrix(1,0,0,-1,0.0,1123.26007)"/>
 <path d="M157.48,0 l1557.04,0" fill="rgb(0,0,0)" fill-opacity="0.1" stroke="rgb(0,0,0)" stroke-opacity="0.5" stroke-width="0.79" transform="matrix(1,0,0,-1,0.0,1123.26007)"/>
 <path d="M157.48,0 l27.56,0 l0,27.56 l-27.56,0 Z M157.48,0" fill="rgb(0,0,0)" fill-opacity="0.1" transform="matrix(1,0,0,-1,0.0,1095.701)"/>
 <path d="M157.48,0 l1557.04,0" fill="rgb(0,0,0)" fill-opacity="0.1" stroke="rgb(0,0,0)" stroke-opacity="0.3" stroke-width="3.15" transform="matrix(1,0,0,-1,0.0,1095.701)"/>
 <path d="M185.04,0 l27.56,0 l0,27.56 l-27.56,0 Z M185.04,0" fill="rgb(0,0,0)" fill-opacity="0.1" transform="matrix(1,0,0,-1,0.0,1068.14193)"/>
 <path d="M157.48,0 l1557.04,0" fill="rgb(0,0,0)" fill-opacity="0.1" stroke="rgb(0,0,0)" stroke-opacity="0.5" stroke-width="0.79" transform="matrix(1,0,0,-1,0.0,1068.14193)"/>
 <path d="M157.48,0 l1557.04,0" fill="rgb(0,0,0)" fill-opacity="0.1" stroke="rgb(0,0,0)" stroke-opacity="0.3" stroke-width="3.15" transform="matrix(1,0,0,-1,0.0,1040.58286)"/>
 <path d="M157.48,0 l27.56,0 l0,27.56 l-27.56,0 Z M157.48,0" fill="rgb(0,0,0)" fill-opacity="0.1" transform="matrix(1,0,0,-1,0.0,961.8426600000001)"/>
 <path d="M157.48,0 l1557.04,0" fill="rgb(0,0,0)" fill-opacity="0.1" stroke="rgb(0,0,0)" stroke-opacity="0.3" stroke-width="3.15" transform="matrix(1,0,0,-1,0.0,961.8426600000001)"/>
 <path d="M185.04,0 l27.56,0 l0,27.56 l-27.56,0 Z M185.04,0" fill="rgb(0,0,0)" fill-opacity="0.1" transform="matrix(1,0,0,-1,0.0,934.2835900000001)"/>
 <path d="M157.48,0 l1557.04,0" fill="rgb(0,0,0)" fill-opacity="0.1" stroke="rgb(0,0,0)" stroke-opacity="0.5" stroke-width="0.79" transform="matrix(1,0,0,-1,0.0,934.2835900000001)"/>
 <path d="M157.48,0 l27.56,0 l0,27.56 l-27.56,0 Z M157.48,0" fill="rgb(0,0,0)" fill-opacity="0.1" transform="matrix(1,0,0,-1,0.0,906.7245200000001)"/>
 <path d="M157.48,0 l1557.04,0" fill="rgb(0,0,0)" fill-opacity="0.1" stroke="rgb(0,0,0)" stroke-opacity="0.3" stroke-width="3.15" transform="matrix(1,0,0,-1,0.0,906.7245200000001)"/>
 <path d="M185.04,0 l27.56,0 l0,27.56 l-27.56,0 Z M185.04,0" fill="rgb(0,0,0)" fill-opacity="0.1" transform="matrix(1,0,0,-1,0.0,879.1654500000001)"/>
 <path d="M157.48,0 l1557.04,0" fill="rgb(0,0,0)" fill-opacity="0.1" stroke="rgb(0,0,0)" stroke-opacity="0.5" stroke-width="0.79" transform="matrix(1,0,0,-1,0.0,879.1654500000001)"/>
 <path d="M157.48,0 l27.56,0 l0,27.56 l-27.56,0 Z M157.48,0" fill="rgb(0,0,0)" fill-opacity="0.1" transform="matrix(1,0,0,-1,0.0,851.6063800000001)"/>
 <path d="M157.48,0 l1557.04,0" fill="rgb(0,0,0)" fill-opacity="0.1" stroke="rgb(0,0,0)" stroke-opacity="0.5" stroke-width="0.79" transform="matrix(1,0,0,-1,0.0,851.6063800000001)"/>
 <path d="M185.04,0 l27.56,0 l0,27.56 l-27.56,0 Z M185.04,0" fill="rgb(0,0,0)" fill-opacity="0.1" transform="matrix(1,0,0,-1,0.0,824.04731)"/>
 <path d="M157.48,0 l1557.04,0" fill="rgb(0,0,0)" fill-opacity="0.1" stroke="rgb(0,0,0)" stroke-opacity="0.5" stroke-width="0.79" transform="matrix(1,0,0,-1,0.0,824.04731)"/>
 <path d="M157.48,0 l27.56,0 l0,27.56 l-27.56,0 Z M157.48,0" fill="rgb(0,0,0)" fill-opacity="0.1" transform="matrix(1,0,0,-1,0.0,796.48824)"/>
 <path d="M157.48,0 l1557.04,0" fill="rgb(0,0,0)" fill-opacity="0.1" stroke="rgb(0,0,0)" stroke-opacity="0.3" stroke-width="3.15" transform="matrix(1,0,0,-1,0.0,796.48824)"/>
 <path d="M185.04,0 l27.56,0 l0,27.56 l-27.56,0 Z M185.04,0" fill="rgb(0,0,0)" fill-opacity="0.1" transform="matrix(1,0,0,-1,0.0,768.92917)"/>
 <path d="M157.48,0 l1557.04,0" fill="rgb(0,0,0)" fill-opacity="0.1" stroke="rgb(0,0,0)" stroke-opacity="0.5" stroke-width="0.79" transform="matrix(1,0,0,-1,0.0,768.92917)"/>
 <path d="M157.48,0 l1557.04,0" fill="rgb(0,0,0)" fill-opacity="0.1" stroke="rgb(0,0,0)" stroke-opacity="0.3" stroke-width="3.15" transform="matrix(1,0,0,-1,0.0,741.3701)"/>
 <path d="M157.48,0 l27.56,0 l0,27.56 l-27.56,0 Z M157.48,0" fill="rgb(0,0,0)" fill-opacity="0.1" transform="matrix(1,0,0,-1,0.0,662.6299000000001)"/>
 <path d="M157.48,0 l1557.04,0" fill="rgb(0,0,0)" fill-opacity="0.1" stroke="rgb(0,0,0)" stroke-opacity="0.3" stroke-width="3.15" transform="matrix(1,0,0,-1,0.0,662.6299000000001)"/>
 <path d="M185.04,0 l27.56,0 l0,27.56 l-27.56,0 Z M185.04,0" fill="rgb(0,0,0)" fill-opacity="0.1" transform="matrix(1,0,0,-1,0.0,635.0708300000001)"/>
 <path d="M157.48,0 l1557.04,0" fill="rgb(0,0,0)" fill-opacity="0.1" stroke="rgb(0,0,0)" stroke-opacity="0.5" stroke-width="0.79" transform="matrix(1,0,0,-1,0.0,635.0708300000001)"/>
 <path d="M157.48,0 l27.56,0 l0,27.56 l-27.56,0 Z M157.48,0" fill="rgb(0,0,0)" fill-opacity="0.1" transform="matrix(1,0,0,-1,0.0,607.5117600000001)"/>
 <path d="M157.48,0 l1557.04,0" fill="rgb(0,0,0)" fill-opacity="0.1" stroke="rgb(0,0,0)" stroke-opacity="0.3" stroke-width="3.15" transform="matrix(1,0,0,-1,0.0,607.5117600000001)"/>
 <path d="M185.04,0 l27.56,0 l0,27.56 l-27.56,0 Z M185.04,0" fill="rgb(0,0,0)" fill-opacity="0.1" transform="matrix(1,0,0,-1,0.0,579.9526900000001)"/>
 <path d="M157.48,0 l1557.04,0" fill="rgb(0,0,0)" fill-opacity="0.1" stroke="rgb(0,0,0)" stroke-opacity="0.5" stroke-width="0.79" transform="matrix(1,0,0,-1,0.0,579.9526900000001)"/>
 <path d="M157.48,0 l27.56,0 l0,27.56 l-27.56,0 Z M157.48,0" fill="rgb(0,0,0)" fill-opacity="0.1" transform="matrix(1,0,0,-1,0.0,552.39362)"/>
 <path d="M157.48,0 l1557.04,0" fill="rgb(0,0,0)" fill-opacity="0.1" stroke="rgb(0,0,0)" stroke-opacity="0.5" stroke-width="0.79" transform="matrix(1,0,0,-1,0.0,552.39362)"/>
 <path d="M185.04,0 l27.56,0 l0,27.56 l-27.56,0 Z M185.04,0" fill="rgb(0,0,0)" fill-opacity="0.1" transform="matrix(1,0,0,-1,0.0,524.83455)"/>
 <path d="M157.48,0 l1557.04,0" fill="rgb(0,0,0)" fill-opacity="0.1" stroke="rgb(0,0,0)" stroke-opacity="0.5" stroke-width="0.79" transform="matrix(1,0,0,-1,0.0,524.83455)"/>
 <path d="M157.48,0 l27.56,0 l0,27.56 l-27.56,0 Z M157.48,0" fill="rgb(0,0,0)" fill-opacity="0.1" transform="matrix(1,0,0,-1,0.0,497.27548)"/>
 <path d="M157.48,0 l1557.04,0" fill="rgb(0,0,0)" fill-opacity="0.1" stroke="rgb(0,0,0)" stroke-opacity="0.3" stroke-width="3.15" transform="matrix(1,0,0,-1,0.0,497.27548)"/>
 <path d="M185.04,0 l27.56,0 l0,27.56 l-27.56,0 Z M185.04,0" fill="rgb(0,0,0)" fill-opacity="0.1" transform="matrix(1,0,0,-1,0.0,469.71641)"/>
 <path d="M157.48,0 l1557.04,0" fill="rgb(0,0,0)" fill-opacity="0.1" stroke="rgb(0,0,0)" stroke-opacity="0.5" stroke-width="0.79" transform="matrix(1,0,0,-1,0.0,469.71641)"/>
 <path d="M157.48,0 l1557.04,0" fill="rgb(0,0,0)" fill-opacity="0.1" stroke="rgb(0,0,0)" stroke-opacity="0.3" stroke-width="3.15" transform="matrix(1,0,0,-1,0.0,442.15734)"/>
 <path d="M157.48,0 l27.56,0 l0,27.56 l-27.56,0 Z M157.48,0" fill="rgb(0,0,0)" fill-opacity="0.1" transform="matrix(1,0,0,-1,0.0,363.41714000000013)"/>
 <path d="M157.48,0 l1557.04,0" fill="rgb(0,0,0)" fill-opacity="0.1" stroke="rgb(0,0,0)" stroke-opacity="0.3" stroke-width="3.15" transform="matrix(1,0,0,-1,0.0,363.41714000000013)"/>
 <path d="M185.04,0 l27.56,0 l0,27.56 l-27.56,0 Z M185.04,0" fill="rgb(0,0,0)" fill-opacity="0.1" transform="matrix(1,0,0,-1,0.0,335.8580700000001)"/>
 <path d="M157.48,0 l1557.04,0" fill="rgb(0,0,0)" fill-opacity="0.1" stroke="rgb(0,0,0)" stroke-opacity="0.5" stroke-width="0.79" transform="matrix(1,0,0,-1,0.0,335.8580700000001)"/>
 <path d="M157.48,0 l27.56,0 l0,27.56 l-27.56,0 Z M157.48,0" fill="rgb(0,0,0)" fill-opacity="0.1" transform="matrix(1,0,0,-1,0.0,308.2990000000001)"/>
 <path d="M157.48,0 l1557.04,0" fill="rgb(0,0,0)" fill-opacity="0.1" stroke="rgb(0,0,0)" stroke-opacity="0.3" stroke-width="3.15" transform="matrix(1,0,0,-1,0.0,308.2990000000001)"/>
 <path d="M185.04,0 l27.56,0 l0,27.56 l-27.56,0 Z M185.04,0" fill="rgb(0,0,0)" fill-opacity="0.1" transform="matrix(1,0,0,-1,0.0,280.7399300000001)"/>
 <path d="M157.48,0 l1557.04,0" fill="rgb(0,0,0)" fill-opacity="0.1" stroke="rgb(0,0,0)" stroke-opacity="0.5" stroke-width="0.79" transform="matrix(1,0,0,-1,0.0,280.7399300000001)"/>
 <path d="M157.48,0 l27.56,0 l0,27.56 l-27.56,0 Z M157.48,0" fill="rgb(0,0,0)" fill-opacity="0.1" transform="matrix(1,0,0,-1,0.0,253.18086000000008)"/>
 <path d="M157.48,0 l1557.04,0" fill="rgb(0,0,0)" fill-opacity="0.1" stroke="rgb(0,0,0)" stroke-opacity="0.5" stroke-width="0.79" transform="matrix(1,0,0,-1,0.0,253.18086000000008)"/>
 <path d="M185.04,0 l27.56,0 l0,27.56 l-27.56,0 Z M185.04,0" fill="rgb(0,0,0)" fill-opacity="0.1" transform="matrix(1,0,0,-1,0.0,225.6217900000001)"/>
 <path d="M157.48,0 l1557.04,0" fill="rgb(0,0,0)" fill-opacity="0.1" stroke="rgb(0,0,0)" stroke-opacity="0.5" stroke-width="0.79" transform="matrix(1,0,0,-1,0.0,225.6217900000001)"/>
 <path d="M157.48,0 l27.56,0 l0,27.56 l-27.56,0 Z M157.48,0" fill="rgb(0,0,0)" fill-opacity="0.1" transform="matrix(1,0,0,-1,0.0,198.0627200000001)"/>
 <path d="M157.48,0 l1557.04,0" fill="rgb(0,0,0)" fill-opacity="0.1" stroke="rgb(0,0,0)" stroke-opacity="0.3" stroke-width="3.15" transform="matrix(1,0,0,-1,0.0,198.0627200000001)"/>
 <path d="M185.04,0 l27.56,0 l0,27.56 l-27.56,0 Z M185.04,0" fill="rgb(0,0,0)" fill-opacity="0.1" transform="matrix(1,0,0,-1,0.0,170.5036500000001)"/>
 <path d="M157.48,0 l1557.04,0" fill="rgb(0,0,0)" fill-opacity="0.1" stroke="rgb(0,0,0)" stroke-opacity="0.5" stroke-width="0.79" transform="matrix(1,0,0,-1,0.0,170.5036500000001)"/>
 <path d="M157.48,0 l1557.04,0" fill="rgb(0,0,0)" fill-opacity="0.1" stroke="rgb(0,0,0)" stroke-opacity="0.3" stroke-width="3.15" transform="matrix(1,0,0,-1,0.0,142.94458000000012)"/>
</svg>