<?xml version="1.0" encoding="UTF-8"?>
<svg width="1872" height="1404" viewBox="0 0 1872 1404" version="1.1" xmlns="http://www.w3.org/2000/svg" xmlns:xlink="http://www.w3.org/1999/xlink">
 <path d="M90.25,-10.04 l1714.82,0 l0,10.04 l-1714.82,0 Z M90.25,-10.04" fill="rgb(255,204,0)" fill-opacity="0.5" transform="matrix(1,0,0,-1,33.464585,1223.2913313543306)"/>
 <path d="M90.25,334.65 l1714.82,0 l0,10.04 l-1714.82,0 Z M90.25,334.65" fill="rgb(255,204,0)" fill-opacity="0.5" transform="matrix(1,0,0,-1,33.464585,1223.2913313543306)"/>
 <text text-anchor="start" transform="matrix(1,0,0,1,37.977262075,30.61416599999984)">
  <tspan fill="rgb(0,0,0)" font-family="InputMonoCondensed-Regular" font-size="24.09" stroke="rgb(0,0,0)" stroke-width="2.08" x="0" y="1360">
   desc
  </tspan>
 </text>
 <path d="M90.25,-167.32 l1714.82,0" fill="rgb(0,0,0)" stroke="rgb(0,0,0)" stroke-width="1" transform="matrix(1,0,0,-1,33.464585,1223.2913313543306)"/>
 <text text-anchor="start" transform="matrix(1,0,0,1,37.977262075,-136.70866864566938)">
  <tspan fill="rgb(0,0,0)" font-family="InputMonoCondensed-Regular" font-size="24.09" stroke="rgb(0,0,0)" stroke-width="2.08" x="0" y="1360">
   base
  </tspan>
 </text>
 <path d="M90.25,0 l1714.82,0" fill="rgb(0,0,0)" stroke="rgb(0,0,0)" stroke-width="1" transform="matrix(1,0,0,-1,33.464585,1223.2913313543306)"/>
 <text text-anchor="start" transform="matrix(1,0,0,1,37.977262075,-471.35433793700804)">
  <tspan fill="rgb(0,0,0)" font-family="InputMonoCondensed-Regular" font-size="24.09" stroke="rgb(0,0,0)" stroke-width="2.08" x="0" y="1360">
   x
  </tspan>
 </text>
 <path d="M90.25,334.65 l1714.82,0" fill="rgb(0,0,0)" stroke="rgb(0,0,0)" stroke-width="1" transform="matrix(1,0,0,-1,33.464585,1223.2913313543306)"/>
 <text text-anchor="start" transform="matrix(1,0,0,1,37.977262075,-618.598432425197)">
  <tspan fill="rgb(0,0,0)" font-family="InputMonoCondensed-Regular" font-size="24.09" stroke="rgb(0,0,0)" stroke-width="2.08" x="0" y="1360">
   cap
  </tspan>
 </text>
 <path d="M90.25,481.89 l1714.82,0" fill="rgb(0,0,0)" stroke="rgb(0,0,0)" stroke-width="1" transform="matrix(1,0,0,-1,33.464585,1223.2913313543306)"/>
 <text text-anchor="start" transform="matrix(1,0,0,1,37.977262075,-638.6771725826773)">
  <tspan fill="rgb(0,0,0)" font-family="InputMonoCondensed-Regular" font-size="24.09" stroke="rgb(0,0,0)" stroke-width="2.08" x="0" y="1360">
   asc
  </tspan>
 </text>
 <path d="M90.25,501.97 l1714.82,0" fill="rgb(0,0,0)" stroke="rgb(0,0,0)" stroke-width="1" transform="matrix(1,0,0,-1,33.464585,1223.2913313543306)"/>
 <path d="M424.9,-167.32 l0,669.29" fill="none" stroke="rgb(0,0,0)" stroke-opacity="0.3" stroke-width="1" transform="matrix(1,0,0,-1,33.464585,1223.2913313543306)"/>
 <path d="M759.54,-167.32 l0,669.29" fill="none" stroke="rgb(0,0,0)" stroke-opacity="0.3" stroke-width="1" transform="matrix(1,0,0,-1,33.464585,1223.2913313543306)"/>
 <path d="M1094.19,-167.32 l0,669.29" fill="none" stroke="rgb(0,0,0)" stroke-opacity="0.3" stroke-width="1" transform="matrix(1,0,0,-1,33.464585,1223.2913313543306)"/>
 <path d="M1428.84,-167.32 l0,669.29" fill="none" stroke="rgb(0,0,0)" stroke-opacity="0.3" stroke-width="1" transform="matrix(1,0,0,-1,33.464585,1223.2913313543306)"/>
 <path d="M1763.48,-167.32 l0,669.29" fill="none" stroke="rgb(0,0,0)" stroke-opacity="0.3" stroke-width="1" transform="matrix(1,0,0,-1,33.464585,1223.2913313543306)"/>
 <path d="M2098.13,-167.32 l0,669.29" fill="none" stroke="rgb(0,0,0)" stroke-opacity="0.3" stroke-width="1" transform="matrix(1,0,0,-1,33.464585,1223.2913313543306)"/>
 <path d="M90.25,-10.04 l1714.82,0 l0,10.04 l-1714.82,0 Z M90.25,-10.04" fill="rgb(255,204,0)" fill-opacity="0.5" transform="matrix(1,0,0,-1,33.464585,527.2283247716534)"/>
 <path d="M90.25,334.65 l1714.82,0 l0,10.04 l-1714.82,0 Z M90.25,334.65" fill="rgb(255,204,0)" fill-opacity="0.5" transform="matrix(1,0,0,-1,33.464585,527.2283247716534)"/>
 <text text-anchor="start" transform="matrix(1,0,0,1,37.977262075,-665.4488405826773)">
  <tspan fill="rgb(0,0,0)" font-family="InputMonoCondensed-Regular" font-size="24.09" stroke="rgb(0,0,0)" stroke-width="2.08" x="0" y="1360">
   desc
  </tspan>
 </text>
 <path d="M90.25,-167.32 l1714.82,0" fill="rgb(0,0,0)" stroke="rgb(0,0,0)" stroke-width="1" transform="matrix(1,0,0,-1,33.464585,527.2283247716534)"/>
 <text text-anchor="start" transform="matrix(1,0,0,1,37.977262075,-832.7716752283466)">
  <tspan fill="rgb(0,0,0)" font-family="InputMonoCondensed-Regular" font-size="24.09" stroke="rgb(0,0,0)" stroke-width="2.08" x="0" y="1360">
   base
  </tspan>
 </text>
 <path d="M90.25,0 l1714.82,0" fill="rgb(0,0,0)" stroke="rgb(0,0,0)" stroke-width="1" transform="matrix(1,0,0,-1,33.464585,527.2283247716534)"/>
 <text text-anchor="start" transform="matrix(1,0,0,1,37.977262075,-1167.4173445196852)">
  <tspan fill="rgb(0,0,0)" font-family="InputMonoCondensed-Regular" font-size="24.09" stroke="rgb(0,0,0)" stroke-width="2.08" x="0" y="1360">
   x
  </tspan>
 </text>
 <path d="M90.25,334.65 l1714.82,0" fill="rgb(0,0,0)" stroke="rgb(0,0,0)" stroke-width="1" transform="matrix(1,0,0,-1,33.464585,527.2283247716534)"/>
 <text text-anchor="start" transform="matrix(1,0,0,1,37.977262075,-1314.6614390078742)">
  <tspan fill="rgb(0,0,0)" font-family="InputMonoCondensed-Regular" font-size="24.09" stroke="rgb(0,0,0)" stroke-width="2.08" x="0" y="1360">
   cap
  </tspan>
 </text>
 <path d="M90.25,481.89 l1714.82,0" fill="rgb(0,0,0)" stroke="rgb(0,0,0)" stroke-width="1" transform="matrix(1,0,0,-1,33.464585,527.2283247716534)"/>
 <text text-anchor="start" transform="matrix(1,0,0,1,37.977262075,-1334.7401791653544)">
  <tspan fill="rgb(0,0,0)" font-family="InputMonoCondensed-Regular" font-size="24.09" stroke="rgb(0,0,0)" stroke-width="2.08" x="0" y="1360">
   asc
  </tspan>
 </text>
 <path d="M90.25,501.97 l1714.82,0" fill="rgb(0,0,0)" stroke="rgb(0,0,0)" stroke-width="1" transform="matrix(1,0,0,-1,33.464585,527.2283247716534)"/>
 <path d="M424.9,-167.32 l0,669.29" fill="none" stroke="rgb(0,0,0)" stroke-opacity="0.3" stroke-width="1" transform="matrix(1,0,0,-1,33.464585,527.2283247716534)"/>
 <path d="M759.54,-167.32 l0,669.29" fill="none" stroke="rgb(0,0,0)" stroke-opacity="0.3" stroke-width="1" transform="matrix(1,0,0,-1,33.464585,527.2283247716534)"/>
 <path d="M1094.19,-167.32 l0,669.29" fill="none" stroke="rgb(0,0,0)" stroke-opacity="0.3" stroke-width="1" transform="matrix(1,0,0,-1,33.464585,527.2283247716534)"/>
 <path d="M1428.84,-167.32 l0,669.29" fill="none" stroke="rgb(0,0,0)" stroke-opacity="0.3" stroke-width="1" transform="matrix(1,0,0,-1,33.464585,527.2283247716534)"/>
 <path d="M1763.48,-167.32 l0,669.29" fill="none" stroke="rgb(0,0,0)" stroke-opacity="0.3" stroke-width="1" transform="matrix(1,0,0,-1,33.464585,527.2283247716534)"/>
 <path d="M2098.13,-167.32 l0,669.29" fill="none" stroke="rgb(0,0,0)" stroke-opacity="0.3" stroke-width="1" transform="matrix(1,0,0,-1,33.464585,527.2283247716534)"/>
</svg>