<?xml version="1.0" encoding="UTF-8"?>
<svg width="1404" height="1872" viewBox="0 0 1404 1872" version="1.1" xmlns="http://www.w3.org/2000/svg" xmlns:xlink="http://www.w3.org/1999/xlink">
 <path d="M0,0 l1714.52,0 l0,63.5 l-1714.52,0 Z M0,0" fill="rgb(255,204,0)" fill-opacity="0.4" stroke-linecap="round" transform="matrix(6.123233995736766e-17,-1.0,-1.0,-6.123233995736766e-17,1325.2598,1793.2598)"/>
 <path d="M0,63.5 l1714.52,0 l0,63.5 l-1714.52,0 Z M0,63.5" fill="rgb(255,204,0)" fill-opacity="0.4" stroke-linecap="round" transform="matrix(6.123233995736766e-17,-1.0,-1.0,-6.123233995736766e-17,1325.2598,1793.2598)"/>
 <path d="M0,444.51 l1714.52,0 l0,63.5 l-1714.52,0 Z M0,444.51" fill="rgb(255,204,0)" fill-opacity="0.4" stroke-linecap="round" transform="matrix(6.123233995736766e-17,-1.0,-1.0,-6.123233995736766e-17,1325.2598,1793.2598)"/>
 <path d="M0,508.01 l1714.52,0 l0,63.5 l-1714.52,0 Z M0,508.01" fill="rgb(255,204,0)" fill-opacity="0.4" stroke-linecap="round" transform="matrix(6.123233995736766e-17,-1.0,-1.0,-6.123233995736766e-17,1325.2598,1793.2598)"/>
 <path d="M95.25,0 l0,889.01" fill="none" stroke="rgb(255,204,0)" stroke-dasharray="5.555555555555555,5.555555555555555" stroke-linecap="round" stroke-width="1.57" transform="matrix(6.123233995736766e-17,-1.0,-1.0,-6.123233995736766e-17,1325.2598,1793.2598)"/>
 <path d="M158.75,0 l0,889.01" fill="none" stroke="rgb(255,204,0)" stroke-dasharray="5.555555555555555,5.555555555555555" stroke-linecap="round" stroke-width="1.57" transform="matrix(6.123233995736766e-17,-1.0,-1.0,-6.123233995736766e-17,1325.2598,1793.2598)"/>
 <path d="M222.25,0 l0,889.01" fill="none" stroke="rgb(255,204,0)" stroke-dasharray="5.555555555555555,5.555555555555555" stroke-linecap="round" stroke-width="1.57" transform="matrix(6.123233995736766e-17,-1.0,-1.0,-6.123233995736766e-17,1325.2598,1793.2598)"/>
 <path d="M285.75,0 l0,889.01" fill="none" stroke="rgb(255,204,0)" stroke-dasharray="5.555555555555555,5.555555555555555" stroke-linecap="round" stroke-width="1.57" transform="matrix(6.123233995736766e-17,-1.0,-1.0,-6.123233995736766e-17,1325.2598,1793.2598)"/>
 <path d="M349.25,0 l0,889.01" fill="none" stroke="rgb(255,204,0)" stroke-dasharray="5.555555555555555,5.555555555555555" stroke-linecap="round" stroke-width="1.57" transform="matrix(6.123233995736766e-17,-1.0,-1.0,-6.123233995736766e-17,1325.2598,1793.2598)"/>
 <path d="M412.75,0 l0,889.01" fill="none" stroke="rgb(255,204,0)" stroke-dasharray="5.555555555555555,5.555555555555555" stroke-linecap="round" stroke-width="1.57" transform="matrix(6.123233995736766e-17,-1.0,-1.0,-6.123233995736766e-17,1325.2598,1793.2598)"/>
 <path d="M476.26,0 l0,889.01" fill="none" stroke="rgb(255,204,0)" stroke-dasharray="5.555555555555555,5.555555555555555" stroke-linecap="round" stroke-width="1.57" transform="matrix(6.123233995736766e-17,-1.0,-1.0,-6.123233995736766e-17,1325.2598,1793.2598)"/>
 <path d="M539.76,0 l0,889.01" fill="none" stroke="rgb(255,204,0)" stroke-dasharray="5.555555555555555,5.555555555555555" stroke-linecap="round" stroke-width="1.57" transform="matrix(6.123233995736766e-17,-1.0,-1.0,-6.123233995736766e-17,1325.2598,1793.2598)"/>
 <path d="M603.26,0 l0,889.01" fill="none" stroke="rgb(255,204,0)" stroke-dasharray="5.555555555555555,5.555555555555555" stroke-linecap="round" stroke-width="1.57" transform="matrix(6.123233995736766e-17,-1.0,-1.0,-6.123233995736766e-17,1325.2598,1793.2598)"/>
 <path d="M666.76,0 l0,889.01" fill="none" stroke="rgb(255,204,0)" stroke-dasharray="5.555555555555555,5.555555555555555" stroke-linecap="round" stroke-width="1.57" transform="matrix(6.123233995736766e-17,-1.0,-1.0,-6.123233995736766e-17,1325.2598,1793.2598)"/>
 <path d="M730.26,0 l0,889.01" fill="none" stroke="rgb(255,204,0)" stroke-dasharray="5.555555555555555,5.555555555555555" stroke-linecap="round" stroke-width="1.57" transform="matrix(6.123233995736766e-17,-1.0,-1.0,-6.123233995736766e-17,1325.2598,1793.2598)"/>
 <path d="M793.76,0 l0,889.01" fill="none" stroke="rgb(255,204,0)" stroke-dasharray="5.555555555555555,5.555555555555555" stroke-linecap="round" stroke-width="1.57" transform="matrix(6.123233995736766e-17,-1.0,-1.0,-6.123233995736766e-17,1325.2598,1793.2598)"/>
 <path d="M857.26,0 l0,889.01" fill="none" stroke="rgb(255,204,0)" stroke-dasharray="5.555555555555555,5.555555555555555" stroke-linecap="round" stroke-width="1.57" transform="matrix(6.123233995736766e-17,-1.0,-1.0,-6.123233995736766e-17,1325.2598,1793.2598)"/>
 <path d="M920.76,0 l0,889.01" fill="none" stroke="rgb(255,204,0)" stroke-dasharray="5.555555555555555,5.555555555555555" stroke-linecap="round" stroke-width="1.57" transform="matrix(6.123233995736766e-17,-1.0,-1.0,-6.123233995736766e-17,1325.2598,1793.2598)"/>
 <path d="M984.26,0 l0,889.01" fill="none" stroke="rgb(255,204,0)" stroke-dasharray="5.555555555555555,5.555555555555555" stroke-linecap="round" stroke-width="1.57" transform="matrix(6.123233995736766e-17,-1.0,-1.0,-6.123233995736766e-17,1325.2598,1793.2598)"/>
 <path d="M1047.76,0 l0,889.01" fill="none" stroke="rgb(255,204,0)" stroke-dasharray="5.555555555555555,5.555555555555555" stroke-linecap="round" stroke-width="1.57" transform="matrix(6.123233995736766e-17,-1.0,-1.0,-6.123233995736766e-17,1325.2598,1793.2598)"/>
 <path d="M63.5,95.25 l1016.01,0" fill="none" stroke="rgb(255,204,0)" stroke-dasharray="5.555555555555555,5.555555555555555" stroke-linecap="round" stroke-width="1.57" transform="matrix(6.123233995736766e-17,-1.0,-1.0,-6.123233995736766e-17,1325.2598,1793.2598)"/>
 <path d="M63.5,158.75 l1016.01,0" fill="none" stroke="rgb(255,204,0)" stroke-dasharray="5.555555555555555,5.555555555555555" stroke-linecap="round" stroke-width="1.57" transform="matrix(6.123233995736766e-17,-1.0,-1.0,-6.123233995736766e-17,1325.2598,1793.2598)"/>
 <path d="M63.5,222.25 l1016.01,0" fill="none" stroke="rgb(255,204,0)" stroke-dasharray="5.555555555555555,5.555555555555555" stroke-linecap="round" stroke-width="1.57" transform="matrix(6.123233995736766e-17,-1.0,-1.0,-6.123233995736766e-17,1325.2598,1793.2598)"/>
 <path d="M63.5,285.75 l1016.01,0" fill="none" stroke="rgb(255,204,0)" stroke-dasharray="5.555555555555555,5.555555555555555" stroke-linecap="round" stroke-width="1.57" transform="matrix(6.123233995736766e-17,-1.0,-1.0,-6.123233995736766e-17,1325.2598,1793.2598)"/>
 <path d="M63.5,349.25 l1016.01,0" fill="none" stroke="rgb(255,204,0)" stroke-dasharray="5.555555555555555,5.555555555555555" stroke-linecap="round" stroke-width="1.57" transform="matrix(6.123233995736766e-17,-1.0,-1.0,-6.123233995736766e-17,1325.2598,1793.2598)"/>
 <path d="M63.5,412.75 l1016.01,0" fill="none" stroke="rgb(255,204,0)" stroke-dasharray="5.555555555555555,5.555555555555555" stroke-linecap="round" stroke-width="1.57" transform="matrix(6.123233995736766e-17,-1.0,-1.0,-6.123233995736766e-17,1325.2598,1793.2598)"/>
 <path d="M63.5,476.26 l1016.01,0" fill="none" stroke="rgb(255,204,0)" stroke-dasharray="5.555555555555555,5.555555555555555" stroke-linecap="round" stroke-width="1.57" transform="matrix(6.123233995736766e-17,-1.0,-1.0,-6.123233995736766e-17,1325.2598,1793.2598)"/>
 <path d="M63.5,539.76 l1016.01,0" fill="none" stroke="rgb(255,204,0)" stroke-dasharray="5.555555555555555,5.555555555555555" stroke-linecap="round" stroke-width="1.57" transform="matrix(6.123233995736766e-17,-1.0,-1.0,-6.123233995736766e-17,1325.2598,1793.2598)"/>
 <path d="M63.5,603.26 l1016.01,0" fill="none" stroke="rgb(255,204,0)" stroke-dasharray="5.555555555555555,5.555555555555555" stroke-linecap="round" stroke-width="1.57" transform="matrix(6.123233995736766e-17,-1.0,-1.0,-6.123233995736766e-17,1325.2598,1793.2598)"/>
 <path d="M63.5,666.76 l1016.01,0" fill="none" stroke="rgb(255,204,0)" stroke-dasharray="5.555555555555555,5.555555555555555" stroke-linecap="round" stroke-width="1.57" transform="matrix(6.123233995736766e-17,-1.0,-1.0,-6.123233995736766e-17,1325.2598,1793.2598)"/>
 <path d="M63.5,730.26 l1016.01,0" fill="none" stroke="rgb(255,204,0)" stroke-dasharray="5.555555555555555,5.555555555555555" stroke-linecap="round" stroke-width="1.57" transform="matrix(6.123233995736766e-17,-1.0,-1.0,-6.123233995736766e-17,1325.2598,1793.2598)"/>
 <path d="M63.5,793.76 l1016.01,0" fill="none" stroke="rgb(255,204,0)" stroke-dasharray="5.555555555555555,5.555555555555555" stroke-linecap="round" stroke-width="1.57" transform="matrix(6.123233995736766e-17,-1.0,-1.0,-6.123233995736766e-17,1325.2598,1793.2598)"/>
 <path d="M63.5,857.26 l1016.01,0" fill="none" stroke="rgb(255,204,0)" stroke-dasharray="5.555555555555555,5.555555555555555" stroke-linecap="round" stroke-width="1.57" transform="matrix(6.123233995736766e-17,-1.0,-1.0,-6.123233995736766e-17,1325.2598,1793.2598)"/>
 <path d="M0,0 l1714.52,0 l0,889.01 l-1714.52,0 Z M0,0" fill="none" stroke="rgb(0,0,0)" stroke-linecap="round" stroke-width="1.57" transform="matrix(6.123233995736766e-17,-1.0,-1.0,-6.123233995736766e-17,1325.2598,1793.2598)"/>
 <path d="M63.5,0 l0,889.01" fill="none" stroke="rgb(0,0,0)" stroke-linecap="round" stroke-width="1.57" transform="matrix(6.123233995736766e-17,-1.0,-1.0,-6.123233995736766e-17,1325.2598,1793.2598)"/>
 <path d="M127.0,0 l0,889.01" fill="none" stroke="rgb(0,0,0)" stroke-linecap="round" stroke-width="1.57" transform="matrix(6.123233995736766e-17,-1.0,-1.0,-6.123233995736766e-17,1325.2598,1793.2598)"/>
 <path d="M190.5,0 l0,889.01" fill="none" stroke="rgb(0,0,0)" stroke-linecap="round" stroke-width="1.57" transform="matrix(6.123233995736766e-17,-1.0,-1.0,-6.123233995736766e-17,1325.2598,1793.2598)"/>
 <path d="M254.0,0 l0,889.01" fill="none" stroke="rgb(0,0,0)" stroke-linecap="round" stroke-width="1.57" transform="matrix(6.123233995736766e-17,-1.0,-1.0,-6.123233995736766e-17,1325.2598,1793.2598)"/>
 <path d="M317.5,0 l0,889.01" fill="none" stroke="rgb(0,0,0)" stroke-linecap="round" stroke-width="1.57" transform="matrix(6.123233995736766e-17,-1.0,-1.0,-6.123233995736766e-17,1325.2598,1793.2598)"/>
 <path d="M381.0,0 l0,889.01" fill="none" stroke="rgb(0,0,0)" stroke-linecap="round" stroke-width="1.57" transform="matrix(6.123233995736766e-17,-1.0,-1.0,-6.123233995736766e-17,1325.2598,1793.2598)"/>
 <path d="M444.51,0 l0,889.01" fill="none" stroke="rgb(0,0,0)" stroke-linecap="round" stroke-width="1.57" transform="matrix(6.123233995736766e-17,-1.0,-1.0,-6.123233995736766e-17,1325.2598,1793.2598)"/>
 <path d="M508.01,0 l0,889.01" fill="none" stroke="rgb(0,0,0)" stroke-linecap="round" stroke-width="1.57" transform="matrix(6.123233995736766e-17,-1.0,-1.0,-6.123233995736766e-17,1325.2598,1793.2598)"/>
 <path d="M571.51,0 l0,889.01" fill="none" stroke="rgb(0,0,0)" stroke-linecap="round" stroke-width="1.57" transform="matrix(6.123233995736766e-17,-1.0,-1.0,-6.123233995736766e-17,1325.2598,1793.2598)"/>
 <path d="M635.01,0 l0,889.01" fill="none" stroke="rgb(0,0,0)" stroke-linecap="round" stroke-width="1.57" transform="matrix(6.123233995736766e-17,-1.0,-1.0,-6.123233995736766e-17,1325.2598,1793.2598)"/>
 <path d="M698.51,0 l0,889.01" fill="none" stroke="rgb(0,0,0)" stroke-linecap="round" stroke-width="1.57" transform="matrix(6.123233995736766e-17,-1.0,-1.0,-6.123233995736766e-17,1325.2598,1793.2598)"/>
 <path d="M762.01,0 l0,889.01" fill="none" stroke="rgb(0,0,0)" stroke-linecap="round" stroke-width="1.57" transform="matrix(6.123233995736766e-17,-1.0,-1.0,-6.123233995736766e-17,1325.2598,1793.2598)"/>
 <path d="M825.51,0 l0,889.01" fill="none" stroke="rgb(0,0,0)" stroke-linecap="round" stroke-width="1.57" transform="matrix(6.123233995736766e-17,-1.0,-1.0,-6.123233995736766e-17,1325.2598,1793.2598)"/>
 <path d="M889.01,0 l0,889.01" fill="none" stroke="rgb(0,0,0)" stroke-linecap="round" stroke-width="1.57" transform="matrix(6.123233995736766e-17,-1.0,-1.0,-6.123233995736766e-17,1325.2598,1793.2598)"/>
 <path d="M952.51,0 l0,889.01" fill="none" stroke="rgb(0,0,0)" stroke-linecap="round" stroke-width="1.57" transform="matrix(6.123233995736766e-17,-1.0,-1.0,-6.123233995736766e-17,1325.2598,1793.2598)"/>
 <path d="M1016.01,0 l0,889.01" fill="none" stroke="rgb(0,0,0)" stroke-linecap="round" stroke-width="1.57" transform="matrix(6.123233995736766e-17,-1.0,-1.0,-6.123233995736766e-17,1325.2598,1793.2598)"/>
 <path d="M1079.51,0 l0,889.01" fill="none" stroke="rgb(0,0,0)" stroke-linecap="round" stroke-width="1.57" transform="matrix(6.123233995736766e-17,-1.0,-1.0,-6.123233995736766e-17,1325.2598,1793.2598)"/>
 <path d="M1143.01,0 l0,889.01" fill="none" stroke="rgb(0,0,0)" stroke-linecap="round" stroke-width="1.57" transform="matrix(6.123233995736766e-17,-1.0,-1.0,-6.123233995736766e-17,1325.2598,1793.2598)"/>
 <path d="M1206.51,0 l0,889.01" fill="none" stroke="rgb(0,0,0)" stroke-linecap="round" stroke-width="1.57" transform="matrix(6.123233995736766e-17,-1.0,-1.0,-6.123233995736766e-17,1325.2598,1793.2598)"/>
 <path d="M1270.01,0 l0,889.01" fill="none" stroke="rgb(0,0,0)" stroke-linecap="round" stroke-width="1.57" transform="matrix(6.123233995736766e-17,-1.0,-1.0,-6.123233995736766e-17,1325.2598,1793.2598)"/>
 <path d="M1333.52,0 l0,889.01" fill="none" stroke="rgb(0,0,0)" stroke-linecap="round" stroke-width="1.57" transform="matrix(6.123233995736766e-17,-1.0,-1.0,-6.123233995736766e-17,1325.2598,1793.2598)"/>
 <path d="M1397.02,0 l0,889.01" fill="none" stroke="rgb(0,0,0)" stroke-linecap="round" stroke-width="1.57" transform="matrix(6.123233995736766e-17,-1.0,-1.0,-6.123233995736766e-17,1325.2598,1793.2598)"/>
 <path d="M1460.52,0 l0,889.01" fill="none" stroke="rgb(0,0,0)" stroke-linecap="round" stroke-width="1.57" transform="matrix(6.123233995736766e-17,-1.0,-1.0,-6.123233995736766e-17,1325.2598,1793.2598)"/>
 <path d="M1524.02,0 l0,889.01" fill="none" stroke="rgb(0,0,0)" stroke-linecap="round" stroke-width="1.57" transform="matrix(6.123233995736766e-17,-1.0,-1.0,-6.123233995736766e-17,1325.2598,1793.2598)"/>
 <path d="M1587.52,0 l0,889.01" fill="none" stroke="rgb(0,0,0)" stroke-linecap="round" stroke-width="1.57" transform="matrix(6.123233995736766e-17,-1.0,-1.0,-6.123233995736766e-17,1325.2598,1793.2598)"/>
 <path d="M1651.02,0 l0,889.01" fill="none" stroke="rgb(0,0,0)" stroke-linecap="round" stroke-width="1.57" transform="matrix(6.123233995736766e-17,-1.0,-1.0,-6.123233995736766e-17,1325.2598,1793.2598)"/>
 <path d="M0,63.5 l1714.52,0" fill="none" stroke="rgb(0,0,0)" stroke-linecap="round" stroke-width="1.57" transform="matrix(6.123233995736766e-17,-1.0,-1.0,-6.123233995736766e-17,1325.2598,1793.2598)"/>
 <path d="M0,127.0 l1714.52,0" fill="none" stroke="rgb(0,0,0)" stroke-linecap="round" stroke-width="1.57" transform="matrix(6.123233995736766e-17,-1.0,-1.0,-6.123233995736766e-17,1325.2598,1793.2598)"/>
 <path d="M0,190.5 l1714.52,0" fill="none" stroke="rgb(0,0,0)" stroke-linecap="round" stroke-width="1.57" transform="matrix(6.123233995736766e-17,-1.0,-1.0,-6.123233995736766e-17,1325.2598,1793.2598)"/>
 <path d="M0,254.0 l1714.52,0" fill="none" stroke="rgb(0,0,0)" stroke-linecap="round" stroke-width="1.57" transform="matrix(6.123233995736766e-17,-1.0,-1.0,-6.123233995736766e-17,1325.2598,1793.2598)"/>
 <path d="M0,317.5 l1714.52,0" fill="none" stroke="rgb(0,0,0)" stroke-linecap="round" stroke-width="1.57" transform="matrix(6.123233995736766e-17,-1.0,-1.0,-6.123233995736766e-17,1325.2598,1793.2598)"/>
 <path d="M0,381.0 l1714.52,0" fill="none" stroke="rgb(0,0,0)" stroke-linecap="round" stroke-width="1.57" transform="matrix(6.123233995736766e-17,-1.0,-1.0,-6.123233995736766e-17,1325.2598,1793.2598)"/>
 <path d="M0,444.51 l1714.52,0" fill="none" stroke="rgb(0,0,0)" stroke-linecap="round" stroke-width="1.57" transform="matrix(6.123233995736766e-17,-1.0,-1.0,-6.123233995736766e-17,1325.2598,1793.2598)"/>
 <path d="M0,508.01 l1714.52,0" fill="none" stroke="rgb(0,0,0)" stroke-linecap="round" stroke-width="1.57" transform="matrix(6.123233995736766e-17,-1.0,-1.0,-6.123233995736766e-17,1325.2598,1793.2598)"/>
 <path d="M0,571.51 l1714.52,0" fill="none" stroke="rgb(0,0,0)" stroke-linecap="round" stroke-width="1.57" transform="matrix(6.123233995736766e-17,-1.0,-1.0,-6.123233995736766e-17,1325.2598,1793.2598)"/>
 <path d="M0,635.01 l1714.52,0" fill="none" stroke="rgb(0,0,0)" stroke-linecap="round" stroke-width="1.57" transform="matrix(6.123233995736766e-17,-1.0,-1.0,-6.123233995736766e-17,1325.2598,1793.2598)"/>
 <path d="M0,698.51 l1714.52,0" fill="none" stroke="rgb(0,0,0)" stroke-linecap="round" stroke-width="1.57" transform="matrix(6.123233995736766e-17,-1.0,-1.0,-6.123233995736766e-17,1325.2598,1793.2598)"/>
 <path d="M0,762.01 l1714.52,0" fill="none" stroke="rgb(0,0,0)" stroke-linecap="round" stroke-width="1.57" transform="matrix(6.123233995736766e-17,-1.0,-1.0,-6.123233995736766e-17,1325.2598,1793.2598)"/>
 <path d="M0,825.51 l1714.52,0" fill="none" stroke="rgb(0,0,0)" stroke-linecap="round" stroke-width="1.57" transform="matrix(6.123233995736766e-17,-1.0,-1.0,-6.123233995736766e-17,1325.2598,1793.2598)"/>
 <text text-anchor="start" transform="matrix(6.123233995736766e-17,-1.0,1.0,6.123233995736766e-17,-1405.5613929629628,1746.3834230324073)">
  <tspan fill="rgb(0,0,0)" font-family="Georgia" font-size="22.22" stroke-linecap="round" x="10.0" y="1830">
   8
  </tspan>
 </text>
 <text text-anchor="start" transform="matrix(6.123233995736766e-17,-1.0,1.0,6.123233995736766e-17,-1405.5613929629628,1682.5463255787035)">
  <tspan fill="rgb(0,0,0)" font-family="Georgia" font-size="22.22" stroke-linecap="round" x="10.0" y="1830">
   9
  </tspan>
 </text>
 <text text-anchor="start" transform="matrix(6.123233995736766e-17,-1.0,1.0,6.123233995736766e-17,-1405.5613929629628,1624.351589236111)">
  <tspan fill="rgb(0,0,0)" font-family="Georgia" font-size="22.22" stroke-linecap="round" x="10.0" y="1830">
   10
  </tspan>
 </text>
 <text text-anchor="start" transform="matrix(6.123233995736766e-17,-1.0,1.0,6.123233995736766e-17,-1405.5613929629628,1558.8055074074073)">
  <tspan fill="rgb(0,0,0)" font-family="Georgia" font-size="22.22" stroke-linecap="round" x="10.0" y="1830">
   11
  </tspan>
 </text>
 <text text-anchor="start" transform="matrix(6.123233995736766e-17,-1.0,1.0,6.123233995736766e-17,-1405.5613929629628,1496.737073148148)">
  <tspan fill="rgb(0,0,0)" font-family="Georgia" font-size="22.22" stroke-linecap="round" x="10.0" y="1830">
   12
  </tspan>
 </text>
 <text text-anchor="start" transform="matrix(6.123233995736766e-17,-1.0,1.0,6.123233995736766e-17,-1405.5613929629628,1433.160392361111)">
  <tspan fill="rgb(0,0,0)" font-family="Georgia" font-size="22.22" stroke-linecap="round" x="10.0" y="1830">
   13
  </tspan>
 </text>
 <text text-anchor="start" transform="matrix(6.123233995736766e-17,-1.0,1.0,6.123233995736766e-17,-1405.5613929629628,1369.806150810185)">
  <tspan fill="rgb(0,0,0)" font-family="Georgia" font-size="22.22" stroke-linecap="round" x="10.0" y="1830">
   14
  </tspan>
 </text>
 <text text-anchor="start" transform="matrix(6.123233995736766e-17,-1.0,1.0,6.123233995736766e-17,-1405.5613929629628,1305.8985238425926)">
  <tspan fill="rgb(0,0,0)" font-family="Georgia" font-size="22.22" stroke-linecap="round" x="10.0" y="1830">
   15
  </tspan>
 </text>
 <text text-anchor="start" transform="matrix(6.123233995736766e-17,-1.0,1.0,6.123233995736766e-17,-1405.5613929629628,1242.8155496527777)">
  <tspan fill="rgb(0,0,0)" font-family="Georgia" font-size="22.22" stroke-linecap="round" x="10.0" y="1830">
   16
  </tspan>
 </text>
 <text text-anchor="start" transform="matrix(6.123233995736766e-17,-1.0,1.0,6.123233995736766e-17,-1405.5613929629628,1178.6095285879628)">
  <tspan fill="rgb(0,0,0)" font-family="Georgia" font-size="22.22" stroke-linecap="round" x="10.0" y="1830">
   17
  </tspan>
 </text>
 <text text-anchor="start" transform="matrix(6.123233995736766e-17,-1.0,1.0,6.123233995736766e-17,-1405.5613929629628,1116.1504693287036)">
  <tspan fill="rgb(0,0,0)" font-family="Georgia" font-size="22.22" stroke-linecap="round" x="10.0" y="1830">
   18
  </tspan>
 </text>
 <text text-anchor="start" transform="matrix(6.123233995736766e-17,-1.0,1.0,6.123233995736766e-17,-1405.5613929629628,1052.313371875)">
  <tspan fill="rgb(0,0,0)" font-family="Georgia" font-size="22.22" stroke-linecap="round" x="10.0" y="1830">
   19
  </tspan>
 </text>
 <text text-anchor="start" transform="matrix(6.123233995736766e-17,-1.0,1.0,6.123233995736766e-17,-1405.5613929629628,990.7766216435184)">
  <tspan fill="rgb(0,0,0)" font-family="Georgia" font-size="22.22" stroke-linecap="round" x="10.0" y="1830">
   20
  </tspan>
 </text>
 <text text-anchor="start" transform="matrix(6.123233995736766e-17,-1.0,1.0,6.123233995736766e-17,-1405.5613929629628,925.2305398148147)">
  <tspan fill="rgb(0,0,0)" font-family="Georgia" font-size="22.22" stroke-linecap="round" x="10.0" y="1830">
   21
  </tspan>
 </text>
 <text text-anchor="start" transform="matrix(6.123233995736766e-17,-1.0,1.0,6.123233995736766e-17,-1405.5613929629628,863.1621055555555)">
  <tspan fill="rgb(0,0,0)" font-family="Georgia" font-size="22.22" stroke-linecap="round" x="10.0" y="1830">
   22
  </tspan>
 </text>
 <text text-anchor="start" transform="matrix(6.123233995736766e-17,-1.0,1.0,6.123233995736766e-17,-1405.5613929629628,799.5854247685185)">
  <tspan fill="rgb(0,0,0)" font-family="Georgia" font-size="22.22" stroke-linecap="round" x="10.0" y="1830">
   23
  </tspan>
 </text>
 <path d="M0,0 l635.01,0 l0,357.51 l-635.01,0 Z M0,0" fill="none" stroke="rgb(0,0,0)" stroke-linecap="round" stroke-width="1.57" transform="matrix(6.123233995736766e-17,-1.0,-1.0,-6.123233995736766e-17,436.24963703703713,713.7474592592594)"/>
 <path d="M63.5,0 l0,357.51" fill="none" stroke="rgb(0,0,0)" stroke-linecap="round" stroke-width="1.57" transform="matrix(6.123233995736766e-17,-1.0,-1.0,-6.123233995736766e-17,436.24963703703713,713.7474592592594)"/>
 <path d="M127.0,0 l0,357.51" fill="none" stroke="rgb(0,0,0)" stroke-linecap="round" stroke-width="1.57" transform="matrix(6.123233995736766e-17,-1.0,-1.0,-6.123233995736766e-17,436.24963703703713,713.7474592592594)"/>
 <path d="M190.5,0 l0,357.51" fill="none" stroke="rgb(0,0,0)" stroke-linecap="round" stroke-width="1.57" transform="matrix(6.123233995736766e-17,-1.0,-1.0,-6.123233995736766e-17,436.24963703703713,713.7474592592594)"/>
 <path d="M254.0,0 l0,357.51" fill="none" stroke="rgb(0,0,0)" stroke-linecap="round" stroke-width="1.57" transform="matrix(6.123233995736766e-17,-1.0,-1.0,-6.123233995736766e-17,436.24963703703713,713.7474592592594)"/>
 <path d="M317.5,0 l0,357.51" fill="none" stroke="rgb(0,0,0)" stroke-linecap="round" stroke-width="1.57" transform="matrix(6.123233995736766e-17,-1.0,-1.0,-6.123233995736766e-17,436.24963703703713,713.7474592592594)"/>
 <path d="M381.0,0 l0,357.51" fill="none" stroke="rgb(0,0,0)" stroke-linecap="round" stroke-width="1.57" transform="matrix(6.123233995736766e-17,-1.0,-1.0,-6.123233995736766e-17,436.24963703703713,713.7474592592594)"/>
 <path d="M444.51,0 l0,357.51" fill="none" stroke="rgb(0,0,0)" stroke-linecap="round" stroke-width="1.57" transform="matrix(6.123233995736766e-17,-1.0,-1.0,-6.123233995736766e-17,436.24963703703713,713.7474592592594)"/>
 <path d="M508.01,0 l0,357.51" fill="none" stroke="rgb(0,0,0)" stroke-linecap="round" stroke-width="1.57" transform="matrix(6.123233995736766e-17,-1.0,-1.0,-6.123233995736766e-17,436.24963703703713,713.7474592592594)"/>
 <path d="M571.51,0 l0,357.51" fill="none" stroke="rgb(0,0,0)" stroke-linecap="round" stroke-width="1.57" transform="matrix(6.123233995736766e-17,-1.0,-1.0,-6.123233995736766e-17,436.24963703703713,713.7474592592594)"/>
 <text text-anchor="start" transform="matrix(6.123233995736766e-17,-1.0,1.0,6.123233995736766e-17,-1727.6377399999997,701.9364292592592)">
  <tspan fill="rgb(0,0,0)" font-family="Georgia" font-size="22.22" stroke-linecap="round" x="0" y="1830">
   a
  </tspan>
 </text>
 <text text-anchor="start" transform="matrix(6.123233995736766e-17,-1.0,1.0,6.123233995736766e-17,-1727.6377399999997,638.4357033333333)">
  <tspan fill="rgb(0,0,0)" font-family="Georgia" font-size="22.22" stroke-linecap="round" x="0" y="1830">
   b
  </tspan>
 </text>
 <text text-anchor="start" transform="matrix(6.123233995736766e-17,-1.0,1.0,6.123233995736766e-17,-1727.6377399999997,574.9349774074074)">
  <tspan fill="rgb(0,0,0)" font-family="Georgia" font-size="22.22" stroke-linecap="round" x="0" y="1830">
   c
  </tspan>
 </text>
 <text text-anchor="start" transform="matrix(6.123233995736766e-17,-1.0,1.0,6.123233995736766e-17,-1727.6377399999997,511.43425148148145)">
  <tspan fill="rgb(0,0,0)" font-family="Georgia" font-size="22.22" stroke-linecap="round" x="0" y="1830">
   d
  </tspan>
 </text>
 <text text-anchor="start" transform="matrix(6.123233995736766e-17,-1.0,1.0,6.123233995736766e-17,-1727.6377399999997,447.93352555555555)">
  <tspan fill="rgb(0,0,0)" font-family="Georgia" font-size="22.22" stroke-linecap="round" x="0" y="1830">
   e
  </tspan>
 </text>
 <text text-anchor="start" transform="matrix(6.123233995736766e-17,-1.0,1.0,6.123233995736766e-17,-1727.6377399999997,384.4327996296296)">
  <tspan fill="rgb(0,0,0)" font-family="Georgia" font-size="22.22" stroke-linecap="round" x="0" y="1830">
   f
  </tspan>
 </text>
 <text text-anchor="start" transform="matrix(6.123233995736766e-17,-1.0,1.0,6.123233995736766e-17,-1727.6377399999997,320.9320737037037)">
  <tspan fill="rgb(0,0,0)" font-family="Georgia" font-size="22.22" stroke-linecap="round" x="0" y="1830">
   g
  </tspan>
 </text>
 <text text-anchor="start" transform="matrix(6.123233995736766e-17,-1.0,1.0,6.123233995736766e-17,-1727.6377399999997,257.4313477777777)">
  <tspan fill="rgb(0,0,0)" font-family="Georgia" font-size="22.22" stroke-linecap="round" x="0" y="1830">
   h
  </tspan>
 </text>
 <text text-anchor="start" transform="matrix(6.123233995736766e-17,-1.0,1.0,6.123233995736766e-17,-1727.6377399999997,193.9306218518518)">
  <tspan fill="rgb(0,0,0)" font-family="Georgia" font-size="22.22" stroke-linecap="round" x="0" y="1830">
   i
  </tspan>
 </text>
 <text text-anchor="start" transform="matrix(6.123233995736766e-17,-1.0,1.0,6.123233995736766e-17,-1727.6377399999997,130.42989592592596)">
  <tspan fill="rgb(0,0,0)" font-family="Georgia" font-size="22.22" stroke-linecap="round" x="0" y="1830">
   j
  </tspan>
 </text>
 <path d="M0,0 l785.82,0 l0,300.36 l-785.82,0 Z M0,0" fill="rgb(0,0,0)" fill-opacity="0.1" stroke-linecap="round" transform="matrix(6.123233995736766e-17,-1.0,-1.0,-6.123233995736766e-17,385.44905629629625,1531.3193055555555)"/>
 <path d="M0,0 l1047.76,0" fill="none" stroke="rgb(0,0,0)" stroke-linecap="round" stroke-width="1.57" transform="matrix(6.123233995736766e-17,-1.0,-1.0,-6.123233995736766e-17,85.09027259259256,1793.2597999999998)"/>
 <path d="M0,0 l1047.76,0" fill="none" stroke="rgb(0,0,0)" stroke-linecap="round" stroke-width="1.57" transform="matrix(6.123233995736766e-17,-1.0,-1.0,-6.123233995736766e-17,385.44905629629625,1793.2598)"/>
</svg>