<?xml version="1.0" encoding="UTF-8"?>
<svg width="1872" height="1404" viewBox="0 0 1872 1404" version="1.1" xmlns="http://www.w3.org/2000/svg" xmlns:xlink="http://www.w3.org/1999/xlink">
 <path d="M0,0 l1714.52,0 l0,63.5 l-1714.52,0 Z M0,0" fill="rgb(255,204,0)" fill-opacity="0.4" stroke-linecap="round" transform="matrix(1,0,0,-1,78.74019999999999,1325.2598)"/>
 <path d="M0,63.5 l1714.52,0 l0,63.5 l-1714.52,0 Z M0,63.5" fill="rgb(255,204,0)" fill-opacity="0.4" stroke-linecap="round" transform="matrix(1,0,0,-1,78.74019999999999,1325.2598)"/>
 <path d="M0,444.51 l1714.52,0 l0,63.5 l-1714.52,0 Z M0,444.51" fill="rgb(255,204,0)" fill-opacity="0.4" stroke-linecap="round" transform="matrix(1,0,0,-1,78.74019999999999,1325.2598)"/>
 <path d="M0,508.01 l1714.52,0 l0,63.5 l-1714.52,0 Z M0,508.01" fill="rgb(255,204,0)" fill-opacity="0.4" stroke-linecap="round" transform="matrix(1,0,0,-1,78.74019999999999,1325.2598)"/>
 <path d="M95.25,0 l0,889.01" fill="none" stroke="rgb(255,204,0)" stroke-dasharray="5.555555555555555,5.555555555555555" stroke-linecap="round" stroke-width="1.57" transform="matrix(1,0,0,-1,78.74019999999999,1325.2598)"/>
 <path d="M158.75,0 l0,889.01" fill="none" stroke="rgb(255,204,0)" stroke-dasharray="5.555555555555555,5.555555555555555" stroke-linecap="round" stroke-width="1.57" transform="matrix(1,0,0,-1,78.74019999999999,1325.2598)"/>
 <path d="M222.25,0 l0,889.01" fill="none" stroke="rgb(255,204,0)" stroke-dasharray="5.555555555555555,5.555555555555555" stroke-linecap="round" stroke-width="1.57" transform="matrix(1,0,0,-1,78.74019999999999,1325.2598)"/>
 <path d="M285.75,0 l0,889.01" fill="none" stroke="rgb(255,204,0)" stroke-dasharray="5.555555555555555,5.555555555555555" stroke-linecap="round" stroke-width="1.57" transform="matrix(1,0,0,-1,78.74019999999999,1325.2598)"/>
 <path d="M349.25,0 l0,889.01" fill="none" stroke="rgb(255,204,0)" stroke-dasharray="5.555555555555555,5.555555555555555" stroke-linecap="round" stroke-width="1.57" transform="matrix(1,0,0,-1,78.74019999999999,1325.2598)"/>
 <path d="M412.75,0 l0,889.01" fill="none" stroke="rgb(255,204,0)" stroke-dasharray="5.555555555555555,5.555555555555555" stroke-linecap="round" stroke-width="1.57" transform="matrix(1,0,0,-1,78.74019999999999,1325.2598)"/>
 <path d="M476.26,0 l0,889.01" fill="none" stroke="rgb(255,204,0)" stroke-dasharray="5.555555555555555,5.555555555555555" stroke-linecap="round" stroke-width="1.57" transform="matrix(1,0,0,-1,78.74019999999999,1325.2598)"/>
 <path d="M539.76,0 l0,889.01" fill="none" stroke="rgb(255,204,0)" stroke-dasharray="5.555555555555555,5.555555555555555" stroke-linecap="round" stroke-width="1.57" transform="matrix(1,0,0,-1,78.74019999999999,1325.2598)"/>
 <path d="M603.26,0 l0,889.01" fill="none" stroke="rgb(255,204,0)" stroke-dasharray="5.555555555555555,5.555555555555555" stroke-linecap="round" stroke-width="1.57" transform="matrix(1,0,0,-1,78.74019999999999,1325.2598)"/>
 <path d="M666.76,0 l0,889.01" fill="none" stroke="rgb(255,204,0)" stroke-dasharray="5.555555555555555,5.555555555555555" stroke-linecap="round" stroke-width="1.57" transform="matrix(1,0,0,-1,78.74019999999999,1325.2598)"/>
 <path d="M730.26,0 l0,889.01" fill="none" stroke="rgb(255,204,0)" stroke-dasharray="5.555555555555555,5.555555555555555" stroke-linecap="round" stroke-width="1.57" transform="matrix(1,0,0,-1,78.74019999999999,1325.2598)"/>
 <path d="M793.76,0 l0,889.01" fill="none" stroke="rgb(255,204,0)" stroke-dasharray="5.555555555555555,5.555555555555555" stroke-linecap="round" stroke-width="1.57" transform="matrix(1,0,0,-1,78.74019999999999,1325.2598)"/>
 <path d="M857.26,0 l0,889.01" fill="none" stroke="rgb(255,204,0)" stroke-dasharray="5.555555555555555,5.555555555555555" stroke-linecap="round" stroke-width="1.57" transform="matrix(1,0,0,-1,78.74019999999999,1325.2598)"/>
 <path d="M920.76,0 l0,889.01" fill="none" stroke="rgb(255,204,0)" stroke-dasharray="5.555555555555555,5.555555555555555" stroke-linecap="round" stroke-width="1.57" transform="matrix(1,0,0,-1,78.74019999999999,1325.2598)"/>
 <path d="M984.26,0 l0,889.01" fill="none" stroke="rgb(255,204,0)" stroke-dasharray="5.555555555555555,5.555555555555555" stroke-linecap="round" stroke-width="1.57" transform="matrix(1,0,0,-1,78.74019999999999,1325.2598)"/>
 <path d="M1047.76,0 l0,889.01" fill="none" stroke="rgb(255,204,0)" stroke-dasharray="5.555555555555555,5.555555555555555" stroke-linecap="round" stroke-width="1.57" transform="matrix(1,0,0,-1,78.74019999999999,1325.2598)"/>
 <path d="M63.5,95.25 l1016.01,0" fill="none" stroke="rgb(255,204,0)" stroke-dasharray="5.555555555555555,5.555555555555555" stroke-linecap="round" stroke-width="1.57" transform="matrix(1,0,0,-1,78.74019999999999,1325.2598)"/>
 <path d="M63.5,158.75 l1016.01,0" fill="none" stroke="rgb(255,204,0)" stroke-dasharray="5.555555555555555,5.555555555555555" stroke-linecap="round" stroke-width="1.57" transform="matrix(1,0,0,-1,78.74019999999999,1325.2598)"/>
 <path d="M63.5,222.25 l1016.01,0" fill="none" stroke="rgb(255,204,0)" stroke-dasharray="5.555555555555555,5.555555555555555" stroke-linecap="round" stroke-width="1.57" transform="matrix(1,0,0,-1,78.74019999999999,1325.2598)"/>
 <path d="M63.5,285.75 l1016.01,0" fill="none" stroke="rgb(255,204,0)" stroke-dasharray="5.555555555555555,5.555555555555555" stroke-linecap="round" stroke-width="1.57" transform="matrix(1,0,0,-1,78.74019999999999,1325.2598)"/>
 <path d="M63.5,349.25 l1016.01,0" fill="none" stroke="rgb(255,204,0)" stroke-dasharray="5.555555555555555,5.555555555555555" stroke-linecap="round" stroke-width="1.57" transform="matrix(1,0,0,-1,78.74019999999999,1325.2598)"/>
 <path d="M63.5,412.75 l1016.01,0" fill="none" stroke="rgb(255,204,0)" stroke-dasharray="5.555555555555555,5.555555555555555" stroke-linecap="round" stroke-width="1.57" transform="matrix(1,0,0,-1,78.74019999999999,1325.2598)"/>
 <path d="M63.5,476.26 l1016.01,0" fill="none" stroke="rgb(255,204,0)" stroke-dasharray="5.555555555555555,5.555555555555555" stroke-linecap="round" stroke-width="1.57" transform="matrix(1,0,0,-1,78.74019999999999,1325.2598)"/>
 <path d="M63.5,539.76 l1016.01,0" fill="none" stroke="rgb(255,204,0)" stroke-dasharray="5.555555555555555,5.555555555555555" stroke-linecap="round" stroke-width="1.57" transform="matrix(1,0,0,-1,78.74019999999999,1325.2598)"/>
 <path d="M63.5,603.26 l1016.01,0" fill="none" stroke="rgb(255,204,0)" stroke-dasharray="5.555555555555555,5.555555555555555" stroke-linecap="round" stroke-width="1.57" transform="matrix(1,0,0,-1,78.74019999999999,1325.2598)"/>
 <path d="M63.5,666.76 l1016.01,0" fill="none" stroke="rgb(255,204,0)" stroke-dasharray="5.555555555555555,5.555555555555555" stroke-linecap="round" stroke-width="1.57" transform="matrix(1,0,0,-1,78.74019999999999,1325.2598)"/>
 <path d="M63.5,730.26 l1016.01,0" fill="none" stroke="rgb(255,204,0)" stroke-dasharray="5.555555555555555,5.555555555555555" stroke-linecap="round" stroke-width="1.57" transform="matrix(1,0,0,-1,78.74019999999999,1325.2598)"/>
 <path d="M63.5,793.76 l1016.01,0" fill="none" stroke="rgb(255,204,0)" stroke-dasharray="5.555555555555555,5.555555555555555" stroke-linecap="round" stroke-width="1.57" transform="matrix(1,0,0,-1,78.74019999999999,1325.2598)"/>
 <path d="M63.5,857.26 l1016.01,0" fill="none" stroke="rgb(255,204,0)" stroke-dasharray="5.555555555555555,5.555555555555555" stroke-linecap="round" stroke-width="1.57" transform="matrix(1,0,0,-1,78.74019999999999,1325.2598)"/>
 <path d="M0,0 l1714.52,0 l0,889.01 l-1714.52,0 Z M0,0" fill="none" stroke="rgb(0,0,0)" stroke-linecap="round" stroke-width="1.57" transform="matrix(1,0,0,-1,78.74019999999999,1325.2598)"/>
 <path d="M63.5,0 l0,889.01" fill="none" stroke="rgb(0,0,0)" stroke-linecap="round" stroke-width="1.57" transform="matrix(1,0,0,-1,78.74019999999999,1325.2598)"/>
 <path d="M127.0,0 l0,889.01" fill="none" stroke="rgb(0,0,0)" stroke-linecap="round" stroke-width="1.57" transform="matrix(1,0,0,-1,78.74019999999999,1325.2598)"/>
 <path d="M190.5,0 l0,889.01" fill="none" stroke="rgb(0,0,0)" stroke-linecap="round" stroke-width="1.57" transform="matrix(1,0,0,-1,78.74019999999999,1325.2598)"/>
 <path d="M254.0,0 l0,889.01" fill="none" stroke="rgb(0,0,0)" stroke-linecap="round" stroke-width="1.57" transform="matrix(1,0,0,-1,78.74019999999999,1325.2598)"/>
 <path d="M317.5,0 l0,889.01" fill="none" stroke="rgb(0,0,0)" stroke-linecap="round" stroke-width="1.57" transform="matrix(1,0,0,-1,78.74019999999999,1325.2598)"/>
 <path d="M381.0,0 l0,889.01" fill="none" stroke="rgb(0,0,0)" stroke-linecap="round" stroke-width="1.57" transform="matrix(1,0,0,-1,78.74019999999999,1325.2598)"/>
 <path d="M444.51,0 l0,889.01" fill="none" stroke="rgb(0,0,0)" stroke-linecap="round" stroke-width="1.57" transform="matrix(1,0,0,-1,78.74019999999999,1325.2598)"/>
 <path d="M508.01,0 l0,889.01" fill="none" stroke="rgb(0,0,0)" stroke-linecap="round" stroke-width="1.57" transform="matrix(1,0,0,-1,78.74019999999999,1325.2598)"/>
 <path d="M571.51,0 l0,889.01" fill="none" stroke="rgb(0,0,0)" stroke-linecap="round" stroke-width="1.57" transform="matrix(1,0,0,-1,78.74019999999999,1325.2598)"/>
 <path d="M635.01,0 l0,889.01" fill="none" stroke="rgb(0,0,0)" stroke-linecap="round" stroke-width="1.57" transform="matrix(1,0,0,-1,78.74019999999999,1325.2598)"/>
 <path d="M698.51,0 l0,889.01" fill="none" stroke="rgb(0,0,0)" stroke-linecap="round" stroke-width="1.57" transform="matrix(1,0,0,-1,78.74019999999999,1325.2598)"/>
 <path d="M762.01,0 l0,889.01" fill="none" stroke="rgb(0,0,0)" stroke-linecap="round" stroke-width="1.57" transform="matrix(1,0,0,-1,78.74019999999999,1325.2598)"/>
 <path d="M825.51,0 l0,889.01" fill="none" stroke="rgb(0,0,0)" stroke-linecap="round" stroke-width="1.57" transform="matrix(1,0,0,-1,78.74019999999999,1325.2598)"/>
 <path d="M889.01,0 l0,889.01" fill="none" stroke="rgb(0,0,0)" stroke-linecap="round" stroke-width="1.57" transform="matrix(1,0,0,-1,78.74019999999999,1325.2598)"/>
 <path d="M952.51,0 l0,889.01" fill="none" stroke="rgb(0,0,0)" stroke-linecap="round" stroke-width="1.57" transform="matrix(1,0,0,-1,78.74019999999999,1325.2598)"/>
 <path d="M1016.01,0 l0,889.01" fill="none" stroke="rgb(0,0,0)" stroke-linecap="round" stroke-width="1.57" transform="matrix(1,0,0,-1,78.74019999999999,1325.2598)"/>
 <path d="M1079.51,0 l0,889.01" fill="none" stroke="rgb(0,0,0)" stroke-linecap="round" stroke-width="1.57" transform="matrix(1,0,0,-1,78.74019999999999,1325.2598)"/>
 <path d="M1143.01,0 l0,889.01" fill="none" stroke="rgb(0,0,0)" stroke-linecap="round" stroke-width="1.57" transform="matrix(1,0,0,-1,78.74019999999999,1325.2598)"/>
 <path d="M1206.51,0 l0,889.01" fill="none" stroke="rgb(0,0,0)" stroke-linecap="round" stroke-width="1.57" transform="matrix(1,0,0,-1,78.74019999999999,1325.2598)"/>
 <path d="M1270.01,0 l0,889.01" fill="none" stroke="rgb(0,0,0)" stroke-linecap="round" stroke-width="1.57" transform="matrix(1,0,0,-1,78.74019999999999,1325.2598)"/>
 <path d="M1333.52,0 l0,889.01" fill="none" stroke="rgb(0,0,0)" stroke-linecap="round" stroke-width="1.57" transform="matrix(1,0,0,-1,78.74019999999999,1325.2598)"/>
 <path d="M1397.02,0 l0,889.01" fill="none" stroke="rgb(0,0,0)" stroke-linecap="round" stroke-width="1.57" transform="matrix(1,0,0,-1,78.74019999999999,1325.2598)"/>
 <path d="M1460.52,0 l0,889.01" fill="none" stroke="rgb(0,0,0)" stroke-linecap="round" stroke-width="1.57" transform="matrix(1,0,0,-1,78.74019999999999,1325.2598)"/>
 <path d="M1524.02,0 l0,889.01" fill="none" stroke="rgb(0,0,0)" stroke-linecap="round" stroke-width="1.57" transform="matrix(1,0,0,-1,78.74019999999999,1325.2598)"/>
 <path d="M1587.52,0 l0,889.01" fill="none" stroke="rgb(0,0,0)" stroke-linecap="round" stroke-width="1.57" transform="matrix(1,0,0,-1,78.74019999999999,1325.2598)"/>
 <path d="M1651.02,0 l0,889.01" fill="none" stroke="rgb(0,0,0)" stroke-linecap="round" stroke-width="1.57" transform="matrix(1,0,0,-1,78.74019999999999,1325.2598)"/>
 <path d="M0,63.5 l1714.52,0" fill="none" stroke="rgb(0,0,0)" stroke-linecap="round" stroke-width="1.57" transform="matrix(1,0,0,-1,78.74019999999999,1325.2598)"/>
 <path d="M0,127.0 l1714.52,0" fill="none" stroke="rgb(0,0,0)" stroke-linecap="round" stroke-width="1.57" transform="matrix(1,0,0,-1,78.74019999999999,1325.2598)"/>
 <path d="M0,190.5 l1714.52,0" fill="none" stroke="rgb(0,0,0)" stroke-linecap="round" stroke-width="1.57" transform="matrix(1,0,0,-1,78.74019999999999,1325.2598)"/>
 <path d="M0,254.0 l1714.52,0" fill="none" stroke="rgb(0,0,0)" stroke-linecap="round" stroke-width="1.57" transform="matrix(1,0,0,-1,78.74019999999999,1325.2598)"/>
 <path d="M0,317.5 l1714.52,0" fill="none" stroke="rgb(0,0,0)" stroke-linecap="round" stroke-width="1.57" transform="matrix(1,0,0,-1,78.74019999999999,1325.2598)"/>
 <path d="M0,381.0 l1714.52,0" fill="none" stroke="rgb(0,0,0)" stroke-linecap="round" stroke-width="1.57" transform="matrix(1,0,0,-1,78.74019999999999,1325.2598)"/>
 <path d="M0,444.51 l1714.52,0" fill="none" stroke="rgb(0,0,0)" stroke-linecap="round" stroke-width="1.57" transform="matrix(1,0,0,-1,78.74019999999999,1325.2598)"/>
 <path d="M0,508.01 l1714.52,0" fill="none" stroke="rgb(0,0,0)" stroke-linecap="round" stroke-width="1.57" transform="matrix(1,0,0,-1,78.74019999999999,1325.2598)"/>
 <path d="M0,571.51 l1714.52,0" fill="none" stroke="rgb(0,0,0)" stroke-linecap="round" stroke-width="1.57" transform="matrix(1,0,0,-1,78.74019999999999,1325.2598)"/>
 <path d="M0,635.01 l1714.52,0" fill="none" stroke="rgb(0,0,0)" stroke-linecap="round" stroke-width="1.57" transform="matrix(1,0,0,-1,78.74019999999999,1325.2598)"/>
 <path d="M0,698.51 l1714.52,0" fill="none" stroke="rgb(0,0,0)" stroke-linecap="round" stroke-width="1.57" transform="matrix(1,0,0,-1,78.74019999999999,1325.2598)"/>
 <path d="M0,762.01 l1714.52,0" fill="none" stroke="rgb(0,0,0)" stroke-linecap="round" stroke-width="1.57" transform="matrix(1,0,0,-1,78.74019999999999,1325.2598)"/>
 <path d="M0,825.51 l1714.52,0" fill="none" stroke="rgb(0,0,0)" stroke-linecap="round" stroke-width="1.57" transform="matrix(1,0,0,-1,78.74019999999999,1325.2598)"/>
 <text text-anchor="start" transform="matrix(1,0,0,1,125.61657696759258,-937.5613929629628)">
  <tspan fill="rgb(0,0,0)" font-family="Georgia" font-size="22.22" stroke-linecap="round" x="10.0" y="1362">
   8
  </tspan>
 </text>
 <text text-anchor="start" transform="matrix(1,0,0,1,189.45367442129628,-937.5613929629628)">
  <tspan fill="rgb(0,0,0)" font-family="Georgia" font-size="22.22" stroke-linecap="round" x="10.0" y="1362">
   9
  </tspan>
 </text>
 <text text-anchor="start" transform="matrix(1,0,0,1,247.64841076388888,-937.5613929629628)">
  <tspan fill="rgb(0,0,0)" font-family="Georgia" font-size="22.22" stroke-linecap="round" x="10.0" y="1362">
   10
  </tspan>
 </text>
 <text text-anchor="start" transform="matrix(1,0,0,1,313.1944925925926,-937.5613929629628)">
  <tspan fill="rgb(0,0,0)" font-family="Georgia" font-size="22.22" stroke-linecap="round" x="10.0" y="1362">
   11
  </tspan>
 </text>
 <text text-anchor="start" transform="matrix(1,0,0,1,375.26292685185183,-937.5613929629628)">
  <tspan fill="rgb(0,0,0)" font-family="Georgia" font-size="22.22" stroke-linecap="round" x="10.0" y="1362">
   12
  </tspan>
 </text>
 <text text-anchor="start" transform="matrix(1,0,0,1,438.8396076388889,-937.5613929629628)">
  <tspan fill="rgb(0,0,0)" font-family="Georgia" font-size="22.22" stroke-linecap="round" x="10.0" y="1362">
   13
  </tspan>
 </text>
 <text text-anchor="start" transform="matrix(1,0,0,1,502.19384918981484,-937.5613929629628)">
  <tspan fill="rgb(0,0,0)" font-family="Georgia" font-size="22.22" stroke-linecap="round" x="10.0" y="1362">
   14
  </tspan>
 </text>
 <text text-anchor="start" transform="matrix(1,0,0,1,566.1014761574074,-937.5613929629628)">
  <tspan fill="rgb(0,0,0)" font-family="Georgia" font-size="22.22" stroke-linecap="round" x="10.0" y="1362">
   15
  </tspan>
 </text>
 <text text-anchor="start" transform="matrix(1,0,0,1,629.1844503472222,-937.5613929629628)">
  <tspan fill="rgb(0,0,0)" font-family="Georgia" font-size="22.22" stroke-linecap="round" x="10.0" y="1362">
   16
  </tspan>
 </text>
 <text text-anchor="start" transform="matrix(1,0,0,1,693.3904714120371,-937.5613929629628)">
  <tspan fill="rgb(0,0,0)" font-family="Georgia" font-size="22.22" stroke-linecap="round" x="10.0" y="1362">
   17
  </tspan>
 </text>
 <text text-anchor="start" transform="matrix(1,0,0,1,755.8495306712963,-937.5613929629628)">
  <tspan fill="rgb(0,0,0)" font-family="Georgia" font-size="22.22" stroke-linecap="round" x="10.0" y="1362">
   18
  </tspan>
 </text>
 <text text-anchor="start" transform="matrix(1,0,0,1,819.686628125,-937.5613929629628)">
  <tspan fill="rgb(0,0,0)" font-family="Georgia" font-size="22.22" stroke-linecap="round" x="10.0" y="1362">
   19
  </tspan>
 </text>
 <text text-anchor="start" transform="matrix(1,0,0,1,881.2233783564815,-937.5613929629628)">
  <tspan fill="rgb(0,0,0)" font-family="Georgia" font-size="22.22" stroke-linecap="round" x="10.0" y="1362">
   20
  </tspan>
 </text>
 <text text-anchor="start" transform="matrix(1,0,0,1,946.7694601851852,-937.5613929629628)">
  <tspan fill="rgb(0,0,0)" font-family="Georgia" font-size="22.22" stroke-linecap="round" x="10.0" y="1362">
   21
  </tspan>
 </text>
 <text text-anchor="start" transform="matrix(1,0,0,1,1008.8378944444444,-937.5613929629628)">
  <tspan fill="rgb(0,0,0)" font-family="Georgia" font-size="22.22" stroke-linecap="round" x="10.0" y="1362">
   22
  </tspan>
 </text>
 <text text-anchor="start" transform="matrix(1,0,0,1,1072.4145752314814,-937.5613929629628)">
  <tspan fill="rgb(0,0,0)" font-family="Georgia" font-size="22.22" stroke-linecap="round" x="10.0" y="1362">
   23
  </tspan>
 </text>
 <path d="M0,0 l635.01,0 l0,357.51 l-635.01,0 Z M0,0" fill="none" stroke="rgb(0,0,0)" stroke-linecap="round" stroke-width="1.57" transform="matrix(1,0,0,-1,1158.2525407407406,436.249637037037)"/>
 <path d="M63.5,0 l0,357.51" fill="none" stroke="rgb(0,0,0)" stroke-linecap="round" stroke-width="1.57" transform="matrix(1,0,0,-1,1158.2525407407406,436.249637037037)"/>
 <path d="M127.0,0 l0,357.51" fill="none" stroke="rgb(0,0,0)" stroke-linecap="round" stroke-width="1.57" transform="matrix(1,0,0,-1,1158.2525407407406,436.249637037037)"/>
 <path d="M190.5,0 l0,357.51" fill="none" stroke="rgb(0,0,0)" stroke-linecap="round" stroke-width="1.57" transform="matrix(1,0,0,-1,1158.2525407407406,436.249637037037)"/>
 <path d="M254.0,0 l0,357.51" fill="none" stroke="rgb(0,0,0)" stroke-linecap="round" stroke-width="1.57" transform="matrix(1,0,0,-1,1158.2525407407406,436.249637037037)"/>
 <path d="M317.5,0 l0,357.51" fill="none" stroke="rgb(0,0,0)" stroke-linecap="round" stroke-width="1.57" transform="matrix(1,0,0,-1,1158.2525407407406,436.249637037037)"/>
 <path d="M381.0,0 l0,357.51" fill="none" stroke="rgb(0,0,0)" stroke-linecap="round" stroke-width="1.57" transform="matrix(1,0,0,-1,1158.2525407407406,436.249637037037)"/>
 <path d="M444.51,0 l0,357.51" fill="none" stroke="rgb(0,0,0)" stroke-linecap="round" stroke-width="1.57" transform="matrix(1,0,0,-1,1158.2525407407406,436.249637037037)"/>
 <path d="M508.01,0 l0,357.51" fill="none" stroke="rgb(0,0,0)" stroke-linecap="round" stroke-width="1.57" transform="matrix(1,0,0,-1,1158.2525407407406,436.249637037037)"/>
 <path d="M571.51,0 l0,357.51" fill="none" stroke="rgb(0,0,0)" stroke-linecap="round" stroke-width="1.57" transform="matrix(1,0,0,-1,1158.2525407407406,436.249637037037)"/>
 <text text-anchor="start" transform="matrix(1,0,0,1,1170.0635707407407,-1259.6377400000001)">
  <tspan fill="rgb(0,0,0)" font-family="Georgia" font-size="22.22" stroke-linecap="round" x="0" y="1362">
   a
  </tspan>
 </text>
 <text text-anchor="start" transform="matrix(1,0,0,1,1233.5642966666665,-1259.6377400000001)">
  <tspan fill="rgb(0,0,0)" font-family="Georgia" font-size="22.22" stroke-linecap="round" x="0" y="1362">
   b
  </tspan>
 </text>
 <text text-anchor="start" transform="matrix(1,0,0,1,1297.0650225925924,-1259.6377400000001)">
  <tspan fill="rgb(0,0,0)" font-family="Georgia" font-size="22.22" stroke-linecap="round" x="0" y="1362">
   c
  </tspan>
 </text>
 <text text-anchor="start" transform="matrix(1,0,0,1,1360.5657485185184,-1259.6377400000001)">
  <tspan fill="rgb(0,0,0)" font-family="Georgia" font-size="22.22" stroke-linecap="round" x="0" y="1362">
   d
  </tspan>
 </text>
 <text text-anchor="start" transform="matrix(1,0,0,1,1424.0664744444443,-1259.6377400000001)">
  <tspan fill="rgb(0,0,0)" font-family="Georgia" font-size="22.22" stroke-linecap="round" x="0" y="1362">
   e
  </tspan>
 </text>
 <text text-anchor="start" transform="matrix(1,0,0,1,1487.5672003703703,-1259.6377400000001)">
  <tspan fill="rgb(0,0,0)" font-family="Georgia" font-size="22.22" stroke-linecap="round" x="0" y="1362">
   f
  </tspan>
 </text>
 <text text-anchor="start" transform="matrix(1,0,0,1,1551.0679262962963,-1259.6377400000001)">
  <tspan fill="rgb(0,0,0)" font-family="Georgia" font-size="22.22" stroke-linecap="round" x="0" y="1362">
   g
  </tspan>
 </text>
 <text text-anchor="start" transform="matrix(1,0,0,1,1614.5686522222222,-1259.6377400000001)">
  <tspan fill="rgb(0,0,0)" font-family="Georgia" font-size="22.22" stroke-linecap="round" x="0" y="1362">
   h
  </tspan>
 </text>
 <text text-anchor="start" transform="matrix(1,0,0,1,1678.0693781481482,-1259.6377400000001)">
  <tspan fill="rgb(0,0,0)" font-family="Georgia" font-size="22.22" stroke-linecap="round" x="0" y="1362">
   i
  </tspan>
 </text>
 <text text-anchor="start" transform="matrix(1,0,0,1,1741.570104074074,-1259.6377400000001)">
  <tspan fill="rgb(0,0,0)" font-family="Georgia" font-size="22.22" stroke-linecap="round" x="0" y="1362">
   j
  </tspan>
 </text>
 <path d="M0,0 l785.82,0 l0,300.36 l-785.82,0 Z M0,0" fill="rgb(0,0,0)" fill-opacity="0.1" stroke-linecap="round" transform="matrix(1,0,0,-1,340.6806944444444,385.44905629629625)"/>
 <path d="M0,0 l1047.76,0" fill="none" stroke="rgb(0,0,0)" stroke-linecap="round" stroke-width="1.57" transform="matrix(1,0,0,-1,78.74019999999999,85.09027259259256)"/>
 <path d="M0,0 l1047.76,0" fill="none" stroke="rgb(0,0,0)" stroke-linecap="round" stroke-width="1.57" transform="matrix(1,0,0,-1,78.74019999999999,385.44905629629625)"/>
</svg>