<?xml version="1.0" encoding="UTF-8"?>
<svg width="1404" height="1872" viewBox="0 0 1404 1872" version="1.1" xmlns="http://www.w3.org/2000/svg" xmlns:xlink="http://www.w3.org/1999/xlink">
 <path d="M90.25,-10.04 l1714.82,0 l0,10.04 l-1714.82,0 Z M90.25,-10.04" fill="rgb(255,204,0)" fill-opacity="0.5" transform="matrix(6.123233995736766e-17,-1.0,-1.0,-6.123233995736766e-17,1223.2913313543306,1838.535415)"/>
 <path d="M90.25,334.65 l1714.82,0 l0,10.04 l-1714.82,0 Z M90.25,334.65" fill="rgb(255,204,0)" fill-opacity="0.5" transform="matrix(6.123233995736766e-17,-1.0,-1.0,-6.123233995736766e-17,1223.2913313543306,1838.535415)"/>
 <text text-anchor="start" transform="matrix(6.123233995736766e-17,-1.0,1.0,6.123233995736766e-17,-437.38583400000016,1834.022737925)">
  <tspan fill="rgb(0,0,0)" font-family="InputMonoCondensed-Regular" font-size="24.09" stroke="rgb(0,0,0)" stroke-width="2.08" x="0" y="1828">
   desc
  </tspan>
 </text>
 <path d="M90.25,-167.32 l1714.82,0" fill="rgb(0,0,0)" stroke="rgb(0,0,0)" stroke-width="1" transform="matrix(6.123233995736766e-17,-1.0,-1.0,-6.123233995736766e-17,1223.2913313543306,1838.535415)"/>
 <text text-anchor="start" transform="matrix(6.123233995736766e-17,-1.0,1.0,6.123233995736766e-17,-604.7086686456694,1834.022737925)">
  <tspan fill="rgb(0,0,0)" font-family="InputMonoCondensed-Regular" font-size="24.09" stroke="rgb(0,0,0)" stroke-width="2.08" x="0" y="1828">
   base
  </tspan>
 </text>
 <path d="M90.25,0 l1714.82,0" fill="rgb(0,0,0)" stroke="rgb(0,0,0)" stroke-width="1" transform="matrix(6.123233995736766e-17,-1.0,-1.0,-6.123233995736766e-17,1223.2913313543306,1838.535415)"/>
 <text text-anchor="start" transform="matrix(6.123233995736766e-17,-1.0,1.0,6.123233995736766e-17,-939.3543379370078,1834.022737925)">
  <tspan fill="rgb(0,0,0)" font-family="InputMonoCondensed-Regular" font-size="24.09" stroke="rgb(0,0,0)" stroke-width="2.08" x="0" y="1828">
   x
  </tspan>
 </text>
 <path d="M90.25,334.65 l1714.82,0" fill="rgb(0,0,0)" stroke="rgb(0,0,0)" stroke-width="1" transform="matrix(6.123233995736766e-17,-1.0,-1.0,-6.123233995736766e-17,1223.2913313543306,1838.535415)"/>
 <text text-anchor="start" transform="matrix(6.123233995736766e-17,-1.0,1.0,6.123233995736766e-17,-1086.598432425197,1834.022737925)">
  <tspan fill="rgb(0,0,0)" font-family="InputMonoCondensed-Regular" font-size="24.09" stroke="rgb(0,0,0)" stroke-width="2.08" x="0" y="1828">
   cap
  </tspan>
 </text>
 <path d="M90.25,481.89 l1714.82,0" fill="rgb(0,0,0)" stroke="rgb(0,0,0)" stroke-width="1" transform="matrix(6.123233995736766e-17,-1.0,-1.0,-6.123233995736766e-17,1223.2913313543306,1838.535415)"/>
 <text text-anchor="start" transform="matrix(6.123233995736766e-17,-1.0,1.0,6.123233995736766e-17,-1106.6771725826773,1834.022737925)">
  <tspan fill="rgb(0,0,0)" font-family="InputMonoCondensed-Regular" font-size="24.09" stroke="rgb(0,0,0)" stroke-width="2.08" x="0" y="1828">
   asc
  </tspan>
 </text>
 <path d="M90.25,501.97 l1714.82,0" fill="rgb(0,0,0)" stroke="rgb(0,0,0)" stroke-width="1" transform="matrix(6.123233995736766e-17,-1.0,-1.0,-6.123233995736766e-17,1223.2913313543306,1838.535415)"/>
 <path d="M424.9,-167.32 l0,669.29" fill="none" stroke="rgb(0,0,0)" stroke-opacity="0.3" stroke-width="1" transform="matrix(6.123233995736766e-17,-1.0,-1.0,-6.123233995736766e-17,1223.2913313543306,1838.535415)"/>
 <path d="M759.54,-167.32 l0,669.29" fill="none" stroke="rgb(0,0,0)" stroke-opacity="0.3" stroke-width="1" transform="matrix(6.123233995736766e-17,-1.0,-1.0,-6.123233995736766e-17,1223.2913313543306,1838.535415)"/>
 <path d="M1094.19,-167.32 l0,669.29" fill="none" stroke="rgb(0,0,0)" stroke-opacity="0.3" stroke-width="1" transform="matrix(6.123233995736766e-17,-1.0,-1.0,-6.123233995736766e-17,1223.2913313543306,1838.535415)"/>
 <path d="M1428.84,-167.32 l0,669.29" fill="none" stroke="rgb(0,0,0)" stroke-opacity="0.3" stroke-width="1" transform="matrix(6.123233995736766e-17,-1.0,-1.0,-6.123233995736766e-17,1223.2913313543306,1838.535415)"/>
 <path d="M1763.48,-167.32 l0,669.29" fill="none" stroke="rgb(0,0,0)" stroke-opacity="0.3" stroke-width="1" transform="matrix(6.123233995736766e-17,-1.0,-1.0,-6.123233995736766e-17,1223.2913313543306,1838.535415)"/>
 <path d="M2098.13,-167.32 l0,669.29" fill="none" stroke="rgb(0,0,0)" stroke-opacity="0.3" stroke-width="1" transform="matrix(6.123233995736766e-17,-1.0,-1.0,-6.123233995736766e-17,1223.2913313543306,1838.535415)"/>
 <path d="M90.25,-10.04 l1714.82,0 l0,10.04 l-1714.82,0 Z M90.25,-10.04" fill="rgb(255,204,0)" fill-opacity="0.5" transform="matrix(6.123233995736766e-17,-1.0,-1.0,-6.123233995736766e-17,527.2283247716534,1838.5354149999998)"/>
 <path d="M90.25,334.65 l1714.82,0 l0,10.04 l-1714.82,0 Z M90.25,334.65" fill="rgb(255,204,0)" fill-opacity="0.5" transform="matrix(6.123233995736766e-17,-1.0,-1.0,-6.123233995736766e-17,527.2283247716534,1838.5354149999998)"/>
 <text text-anchor="start" transform="matrix(6.123233995736766e-17,-1.0,1.0,6.123233995736766e-17,-1133.4488405826773,1834.0227379249998)">
  <tspan fill="rgb(0,0,0)" font-family="InputMonoCondensed-Regular" font-size="24.09" stroke="rgb(0,0,0)" stroke-width="2.08" x="0" y="1828">
   desc
  </tspan>
 </text>
 <path d="M90.25,-167.32 l1714.82,0" fill="rgb(0,0,0)" stroke="rgb(0,0,0)" stroke-width="1" transform="matrix(6.123233995736766e-17,-1.0,-1.0,-6.123233995736766e-17,527.2283247716534,1838.5354149999998)"/>
 <text text-anchor="start" transform="matrix(6.123233995736766e-17,-1.0,1.0,6.123233995736766e-17,-1300.7716752283466,1834.0227379249998)">
  <tspan fill="rgb(0,0,0)" font-family="InputMonoCondensed-Regular" font-size="24.09" stroke="rgb(0,0,0)" stroke-width="2.08" x="0" y="1828">
   base
  </tspan>
 </text>
 <path d="M90.25,0 l1714.82,0" fill="rgb(0,0,0)" stroke="rgb(0,0,0)" stroke-width="1" transform="matrix(6.123233995736766e-17,-1.0,-1.0,-6.123233995736766e-17,527.2283247716534,1838.5354149999998)"/>
 <text text-anchor="start" transform="matrix(6.123233995736766e-17,-1.0,1.0,6.123233995736766e-17,-1635.417344519685,1834.0227379249998)">
  <tspan fill="rgb(0,0,0)" font-family="InputMonoCondensed-Regular" font-size="24.09" stroke="rgb(0,0,0)" stroke-width="2.08" x="0" y="1828">
   x
  </tspan>
 </text>
 <path d="M90.25,334.65 l1714.82,0" fill="rgb(0,0,0)" stroke="rgb(0,0,0)" stroke-width="1" transform="matrix(6.123233995736766e-17,-1.0,-1.0,-6.123233995736766e-17,527.2283247716534,1838.5354149999998)"/>
 <text text-anchor="start" transform="matrix(6.123233995736766e-17,-1.0,1.0,6.123233995736766e-17,-1782.6614390078742,1834.0227379249998)">
  <tspan fill="rgb(0,0,0)" font-family="InputMonoCondensed-Regular" font-size="24.09" stroke="rgb(0,0,0)" stroke-width="2.08" x="0" y="1828">
   cap
  </tspan>
 </text>
 <path d="M90.25,481.89 l1714.82,0" fill="rgb(0,0,0)" stroke="rgb(0,0,0)" stroke-width="1" transform="matrix(6.123233995736766e-17,-1.0,-1.0,-6.123233995736766e-17,527.2283247716534,1838.5354149999998)"/>
 <text text-anchor="start" transform="matrix(6.123233995736766e-17,-1.0,1.0,6.123233995736766e-17,-1802.7401791653544,1834.0227379249998)">
  <tspan fill="rgb(0,0,0)" font-family="InputMonoCondensed-Regular" font-size="24.09" stroke="rgb(0,0,0)" stroke-width="2.08" x="0" y="1828">
   asc
  </tspan>
 </text>
 <path d="M90.25,501.97 l1714.82,0" fill="rgb(0,0,0)" stroke="rgb(0,0,0)" stroke-width="1" transform="matrix(6.123233995736766e-17,-1.0,-1.0,-6.123233995736766e-17,527.2283247716534,1838.5354149999998)"/>
 <path d="M424.9,-167.32 l0,669.29" fill="none" stroke="rgb(0,0,0)" stroke-opacity="0.3" stroke-width="1" transform="matrix(6.123233995736766e-17,-1.0,-1.0,-6.123233995736766e-17,527.2283247716534,1838.5354149999998)"/>
 <path d="M759.54,-167.32 l0,669.29" fill="none" stroke="rgb(0,0,0)" stroke-opacity="0.3" stroke-width="1" transform="matrix(6.123233995736766e-17,-1.0,-1.0,-6.123233995736766e-17,527.2283247716534,1838.5354149999998)"/>
 <path d="M1094.19,-167.32 l0,669.29" fill="none" stroke="rgb(0,0,0)" stroke-opacity="0.3" stroke-width="1" transform="matrix(6.123233995736766e-17,-1.0,-1.0,-6.123233995736766e-17,527.2283247716534,1838.5354149999998)"/>
 <path d="M1428.84,-167.32 l0,669.29" fill="none" stroke="rgb(0,0,0)" stroke-opacity="0.3" stroke-width="1" transform="matrix(6.123233995736766e-17,-1.0,-1.0,-6.123233995736766e-17,527.2283247716534,1838.5354149999998)"/>
 <path d="M1763.48,-167.32 l0,669.29" fill="none" stroke="rgb(0,0,0)" stroke-opacity="0.3" stroke-width="1" transform="matrix(6.123233995736766e-17,-1.0,-1.0,-6.123233995736766e-17,527.2283247716534,1838.5354149999998)"/>
 <path d="M2098.13,-167.32 l0,669.29" fill="none" stroke="rgb(0,0,0)" stroke-opacity="0.3" stroke-width="1" transform="matrix(6.123233995736766e-17,-1.0,-1.0,-6.123233995736766e-17,527.2283247716534,1838.5354149999998)"/>
</svg>